<?xml version="1.0" encoding="utf-8"?>
<!-- Generator: Adobe Illustrator 16.0.0, SVG Export Plug-In . SVG Version: 6.00 Build 0)  -->
<!DOCTYPE svg PUBLIC "-//W3C//DTD SVG 1.1//EN" "http://www.w3.org/Graphics/SVG/1.1/DTD/svg11.dtd">
<svg version="1.1" xmlns="http://www.w3.org/2000/svg" xmlns:xlink="http://www.w3.org/1999/xlink" x="0px" y="0px"
	 width="2955.058px" height="3206.909px" viewBox="0 0 2955.058 3206.909" enable-background="new 0 0 2955.058 3206.909"
	 xml:space="preserve">
<g id="Layer_4" display="none">
	<path display="inline" fill="#C1DFF0" d="M3163.926,3064.984c0,124.191-100.678,224.865-224.863,224.865H15.995
		c-124.188,0-224.863-100.674-224.863-224.865V141.922c0-124.19,100.675-224.864,224.863-224.864h2923.068
		c124.186,0,224.863,100.673,224.863,224.864V3064.984z"/>
</g>
<g id="Layer_2" display="none">
	<g display="inline">
		<path fill="#99A2C6" d="M2618.759,936.496c-24.375-153.507-232.999-267.33-531.791-308.977
			c17.904-311.645-49.316-545.687-190.08-600.243c-32.295-12.827-68.105-15.46-105.823-9.109v-0.477
			c-125.402,21.38-274.805,141.998-415.169,330.917c-191.316-131.33-369.958-194.958-495.341-173.575l0.088,0.484
			c-38.295,6.508-71.564,20.938-98.82,44.037c-115.909,98.354-106.729,341.79,6.989,630.011
			c-269.136,139.098-430.673,315.569-406.384,468.637c16.116,101.326,112.511,185.371,262.107,242.767l1.913-7.891
			c8.101-33.028,21.173-63.446,38.172-90.603c-115.945-43.903-191.723-103.217-200.997-161.519
			c-11.786-74.188,77.658-186.012,227.766-284.414c36.452-24.125,76.813-47.04,118.687-69.219
			c40.696,88.131,90.216,178.663,148.275,270.128c-9.143,36.749-17.382,73.025-24.65,108.784
			c15.627,1.405,31.379,4.133,47.076,8.235l48.323,12.725c1.876,0.471,3.719,0.991,5.562,1.513
			c0.903-4.603,1.842-9.159,2.782-13.747c4.519,6.31,9.037,12.614,13.626,18.943c120.776,42.274,199.397,160.618,197.99,289.318
			c14.879-0.608,29.864-1.37,44.88-2.26c27.257,27.779,54.653,54.447,82.064,79.945l96.805-54.043
			c-13.905-12.465-27.865-25.331-41.822-38.588c41.335-5.13,83.505-10.884,125.849-18.08c8.554-1.479,17.106-2.956,25.591-4.483
			l395.978-221.039c-33.568,13.143-68.105,25.622-103.586,37.338c16.617-40.173,32.942-81.351,47.871-123.141
			c14.95-41.406,28.457-82.985,41.181-123.975c32.926,56.113,62.493,112.813,88.633,168.406l91.209-50.827
			c-39.337-83.403-86.492-168.854-141.32-255.144c26.28-105.427,44.761-207.063,55.622-303.502
			c47.49,6.917,92.897,15.679,135.795,26.299c172.748,43.805,291.994,119.51,303.746,193.661
			c11.266,74.227-78.081,186.064-228.201,284.452c-6.397,4.239-12.949,8.428-19.502,12.584
			c53.798-9.662,108.709-3.197,158.266,17.386C2563.362,1159.986,2635.615,1042.533,2618.759,936.496z M1460.062,409.923
			c125.659-168.23,252.499-270.38,347.304-286.804v0.44c20.948-3.56,38.524-2.166,53.891,3.436
			c67.927,26.254,117.087,161.945,124.838,345.99c2,45.266,1.289,93.38-1.196,142.82c-92.964-7.422-193.351-8.26-297.661-2.071
			C1611.845,536.852,1535.364,468.382,1460.062,409.923z M897.312,280.387c94.354-16.115,246.664,37.921,417.881,154.739
			c-52.792,80.346-104.07,170.107-150.792,267.852c-101.222,28.909-195.991,63.03-281.637,101.427
			c-17.99-45.438-33.045-89.903-45.49-132.908c-50.096-176.817-45.959-321.613,9.63-369.452
			c12.322-10.792,29.517-17.627,50.478-21.181L897.312,280.387z M1975.213,722.776c-7.178,63.759-18.213,130.199-31.945,197.051
			c-24.633-34.592-50.204-69.046-77.705-103.186c-27.013-34.207-55.153-67.215-83.21-99.32
			C1848.616,716.205,1913.038,717.842,1975.213,722.776z M1846.373,1261.465c-25.412,69.811-52.271,136.525-81.21,199.191
			c-66.889,17.707-135.236,32.767-204.456,44.587c-68.869,11.746-138.209,20.198-206.575,26.037
			c-46.76-49.767-93.242-103.442-138.852-160.667c-44.484-55.955-85.926-113.425-124.705-171.832
			c18.2-68.087,40.048-136.836,64.383-204.572c25.432-69.828,52.289-136.507,81.178-199.191
			c66.958-17.694,135.236-32.767,204.561-44.601c68.852-11.755,138.229-20.184,206.49-26.005
			c46.844,49.712,93.29,103.424,138.92,160.647c44.446,55.958,85.855,113.424,124.687,171.813
			C1892.091,1125.048,1870.674,1193.708,1846.373,1261.465z M1399.015,497.007c49.571,38.105,100.017,81.388,150.742,129.521
			c-41.339,5.11-83.491,10.83-125.886,18.095c-42.866,7.282-85.107,15.473-126.181,24.947
			C1329.9,607.304,1364.281,549.505,1399.015,497.007z M1105.89,832.792c-16.53,40.204-32.942,81.296-47.839,123.173
			c-14.948,41.32-28.522,82.478-41.247,123.453c-34.646-59.121-65.709-118.813-92.756-177.253
			C981.414,877.306,1042.321,853.804,1105.89,832.792z"/>
		<g>
			<path fill="#FFFFFF" d="M2449.782,1502.006c-40.276-72.239-129.414-96.993-199.191-55.311l-1224.749,732.819
				c-35.531,21.505-79.857-11.681-70.051-53.085l112.605-477.472c19.122-81.034-28.806-162.804-107.011-182.62
				c-78.22-19.833-157.104,29.832-176.259,110.901c-46.968,199.099-343.064,974.757-254.621,1133.493l317.808,570.396
				c22.701,40.765,62.453,68.263,107.79,70.814c132.525,7.373,422.99,5.442,652.877-125.815v0.176l505.087-302.219
				c69.775-41.732,93.588-134.123,53.313-206.402c-40.203-72.322-129.326-97.028-199.117-55.311l63.168-37.787
				c69.775-41.736,93.592-134.127,53.296-206.4c-40.191-72.246-129.326-97.03-199.1-55.317l63.064-37.718
				c69.771-41.718,93.691-134.128,53.397-206.386c-40.293-72.261-129.414-97.031-199.203-55.311l593.516-355.044
				C2466.173,1666.727,2489.985,1574.285,2449.782,1502.006z"/>
			<path fill="#252C6B" d="M1042.875,3426.846c-34.815,0-65.547-1.13-90.771-2.557c-69.218-3.839-131.656-44.201-167.136-107.912
				l-317.764-570.396c-75.059-134.604,29.532-491.096,174.012-943.117c33.217-104.014,61.931-193.814,73.37-242.257
				c27.898-118.34,148.555-193.992,264.619-164.529c116.168,29.448,187.836,150.346,159.727,269.519l-99.341,421.198
				l1173.749-702.275c33.496-19.974,71.53-30.543,109.983-30.543c78.257,0,150.983,43.214,189.765,112.744
				c59.067,106.104,23.346,242.438-79.524,303.955l-419.339,250.815c20.304,17.017,37.734,37.963,51.174,61.932
				c38.52,69.147,36.765,151.093,2.397,216.867c32.926,19.507,60.909,47.805,80.24,82.638
				c38.517,69.078,36.852,151.093,2.482,216.867c32.856,19.5,60.823,47.805,80.259,82.638
				c59.063,105.995,23.413,242.351-79.545,303.835l-505.004,302.214C1445.477,3402.945,1207.457,3426.846,1042.875,3426.846z
				 M926.654,1534.479c-33.549,0-62.713,24.401-70.987,59.418c-12.71,53.916-40.817,141.836-76.382,253.108
				c-70.573,220.844-235.866,737.998-185.472,828.475l317.805,570.396c11.195,19.992,29.327,32.611,48.551,33.722
				c22.947,1.218,50.966,2.262,82.706,2.262c147.059,0,358.397-20.637,530.141-118.709l503.885-301.261
				c36.301-21.744,48.521-70.571,27.175-108.865c-19.906-35.722-64.198-48.763-98.477-28.53l-0.069,0.074c0,0,0,0-0.085,0
				c-34.21,20.862-78.813,9.349-99.362-24.946c-20.527-34.367-9.437-78.896,24.944-99.429l63.138-37.801
				c36.364-21.747,48.598-70.579,27.253-108.877c-19.816-35.471-64.246-48.999-98.629-28.457
				c-34.208,20.862-78.811,9.428-99.359-25.024c-20.544-34.281-9.352-78.818,24.943-99.346h0.091c0,0,0,0,0-0.083l62.973-37.648
				c36.453-21.821,48.691-70.644,27.344-108.854c-19.816-35.568-64.262-49.008-98.629-28.476l0,0h-0.088
				c-34.21,20.877-78.811,9.349-99.357-24.928c-20.529-34.383-9.354-78.882,24.944-99.428l593.478-355.091
				c36.472-21.717,48.604-70.594,27.346-108.923c-19.835-35.408-64.267-48.879-98.717-28.33l-1224.718,732.782
				c-49.156,29.882-118.809,16.935-155.088-29.027c-23.031-29.101-31.305-66.576-22.701-102.943l112.605-477.398
				c10.047-42.69-14.287-85.61-54.304-95.761C937.953,1535.177,932.289,1534.479,926.654,1534.479z"/>
		</g>
	</g>
</g>
<g id="Layer_3">
	<g>
		<g>
			<path fill="#99A2C6" d="M1477.534,1611.204c155.421,0,281.446-125.992,281.446-281.442c0-155.43-126.025-281.44-281.446-281.44
				c-155.405,0-281.411,126.011-281.411,281.44C1196.123,1485.212,1322.076,1611.204,1477.534,1611.204z"/>
			<path fill="#99A2C6" d="M1477.534,2033.328C649.004,2033.328,0,1724.294,0,1329.762c0-394.525,649.004-703.57,1477.534-703.57
				c828.508,0,1477.524,309.044,1477.524,703.57C2955.058,1724.294,2306.042,2033.328,1477.534,2033.328z M1477.534,766.895
				c-799.659,0-1336.824,291.039-1336.824,562.867c0,271.833,537.166,562.884,1336.824,562.884
				c799.646,0,1336.814-291.051,1336.814-562.884C2814.348,1057.934,2277.179,766.895,1477.534,766.895z"/>
			<path fill="#99A2C6" d="M2020.32,2659.519c-0.023,0-0.05,0-0.075,0c-351.372-0.048-814.335-393.06-1152.037-977.97
				c-192.805-333.953-315.657-682.885-345.942-982.546c-32.258-319.166,44.638-549.574,216.532-648.811
				C796.477,16.889,862.439,0,934.837,0c351.348,0,814.3,393.024,1152.009,977.986
				c414.267,717.474,471.106,1434.079,129.424,1631.368C2158.604,2642.64,2092.671,2659.519,2020.32,2659.519z M934.837,140.708
				c-47.38,0-89.672,10.551-125.683,31.342c-119.338,68.884-172.879,255.79-146.901,512.808
				c28.329,280.27,144.75,609.258,327.8,926.346c303.629,525.86,736.898,907.587,1030.217,907.607c0.026,0,0.026,0,0.05,0
				c47.334,0,89.587-10.538,125.607-31.337c235.429-135.908,218.887-746.636-180.951-1439.137
				C1661.374,522.417,1228.122,140.708,934.837,140.708z"/>
			<path fill="#99A2C6" d="M934.804,2659.519c-0.029,0,0.011,0-0.013,0c-72.392,0-138.337-16.879-196.016-50.165
				C397.119,2412.039,453.986,1695.46,868.208,977.986C1205.935,393.024,1668.9,0,2020.245,0c72.402,0,138.359,16.889,196.05,50.204
				c341.658,197.25,284.79,913.827-129.448,1631.345C1749.137,2266.489,1286.124,2659.519,934.804,2659.519z M2020.245,140.708
				c-293.294,0-726.548,381.71-1030.192,907.63c-399.78,692.471-416.312,1303.203-180.925,1439.171
				c36.008,20.765,78.291,31.303,125.664,31.303c293.293,0,726.561-381.694,1030.185-907.607
				c399.807-692.521,416.354-1303.236,180.976-1439.154C2109.935,151.258,2067.626,140.708,2020.245,140.708z"/>
		</g>
		<g>
			<path fill="#FFFFFF" d="M2868.764,2415.211l-74.033-283.785c-10.526-40.356-32.231-76.609-62.764-104.841
				c-29.597-27.363-66.134-45.966-105.665-53.795c-32.299-6.396-66.27-5.302-98.247,3.172c-21.933,5.81-42.475,14.821-61.129,26.617
				c-7.357-9.525-15.521-18.466-24.447-26.719c-29.598-27.362-66.135-45.966-105.667-53.793c-32.3-6.399-66.271-5.303-98.267,3.173
				c-22.427,5.944-43.406,15.234-62.398,27.43c-8.905-12.783-19.201-24.629-30.769-35.322
				c-29.595-27.361-66.133-45.963-105.661-53.793c-32.299-6.396-66.271-5.301-98.252,3.172
				c-56.262,14.908-103.438,50.794-132.843,101.049c-29.447,50.332-37.574,109.08-22.88,165.437l28.802,110.402
				c-16.58,0.522-33.118,2.917-49.157,7.168c-23.783,6.302-45.932,16.366-65.813,29.669c-5.137-5.904-10.607-11.546-16.396-16.899
				c-29.598-27.361-66.135-45.964-105.662-53.793c-32.305-6.399-66.279-5.3-98.256,3.173c-19.881,5.269-38.618,13.166-55.845,23.382
				c-9.639-14.684-21.066-28.21-34.112-40.271c-29.594-27.361-66.134-45.962-105.663-53.789c-32.297-6.397-66.268-5.305-98.26,3.169
				c-56.256,14.912-103.43,50.799-132.832,101.049c-21.394,36.563-31.522,77.564-29.837,118.86
				c-20.154-0.346-40.397,2.061-59.897,7.228c-56.262,14.908-103.441,50.793-132.846,101.047
				c-15.056,25.732-24.525,53.666-28.234,82.354c-26.623-2.905-53.894-0.891-79.852,5.985
				c-56.258,14.91-103.434,50.795-132.837,101.049c-29.451,50.334-37.578,109.087-22.879,165.432l50.566,193.84
				c9.689,37.162,29.061,71.165,56.007,98.322c30.732,30.98,69.605,51.842,112.419,60.321c32.306,6.396,66.285,5.3,98.253-3.174
				c48.562-12.862,90.343-41.367,119.783-81.24c17.341,8.668,35.867,15.031,55.201,18.858c32.301,6.398,66.274,5.304,98.254-3.168
				c19.642-5.204,38.173-12.974,55.231-23.014c10.11,19.578,23.143,37.592,38.736,53.311c30.734,30.982,69.611,51.84,112.425,60.322
				c32.301,6.396,66.276,5.299,98.247-3.172c56.262-14.906,103.44-50.791,132.848-101.051c17.463-29.848,27.428-62.654,29.58-96.167
				c20.354,0.405,40.81-2.003,60.499-7.224c56.261-14.903,103.44-50.79,132.846-101.047c12.364-21.132,20.955-43.748,25.69-67.048
				c24.155,1.771,48.684-0.459,72.127-6.675c15.981-4.232,31.226-10.162,45.54-17.629l28.518,109.314
				c9.697,37.15,29.063,71.14,56.001,98.293c30.734,30.979,69.61,51.838,112.423,60.316c32.306,6.399,66.28,5.301,98.247-3.171
				c56.264-14.906,103.444-50.793,132.848-101.047c16.429-28.079,26.212-58.777,29.111-90.215
				c22.867,1.258,45.996-1.062,68.179-6.936c56.26-14.91,103.436-50.795,132.838-101.047c14.575-24.907,23.918-51.878,27.866-79.593
				c22.354,1.064,44.936-1.276,66.602-7.016c56.258-14.909,103.434-50.794,132.84-101.045
				C2875.341,2530.309,2883.466,2471.556,2868.764,2415.211z"/>
			<g>
				<path fill="#252C6B" d="M752.372,3041.597c-12.67-12.768-22.234-28.947-27.103-47.627l-50.571-193.854
					c-14.773-56.632,19.215-114.719,75.917-129.744c56.704-15.025,114.644,18.709,129.415,75.346l50.576,193.848
					c14.771,56.641-19.216,114.729-75.918,129.748C816.681,3079.381,778.113,3067.55,752.372,3041.597z"/>
				<path fill="#252C6B" d="M1025.6,2976.041c-12.669-12.771-22.23-28.949-27.105-47.621l-82.871-317.691
					c-14.776-56.633,19.215-114.723,75.917-129.748c56.706-15.022,114.641,18.714,129.418,75.348l82.876,317.685
					c14.775,56.637-19.215,114.727-75.917,129.75C1089.913,3013.832,1051.344,3001.992,1025.6,2976.041z"/>
				<path fill="#252C6B" d="M1330.245,3063.49c-12.666-12.771-22.228-28.95-27.099-47.623l-164.943-632.272
					c-14.774-56.636,19.217-114.721,75.916-129.75c56.705-15.02,114.647,18.713,129.422,75.349l164.939,632.268
					c14.771,56.633-19.214,114.727-75.918,129.748C1394.56,3101.28,1355.992,3089.444,1330.245,3063.49z"/>
				<path fill="#252C6B" d="M1553.172,2859.049c-12.662-12.764-22.229-28.945-27.102-47.617l-93.996-360.33
					c-14.772-56.633,19.215-114.725,75.914-129.748c56.705-15.023,114.646,18.711,129.422,75.345l93.997,360.324
					c14.77,56.637-19.218,114.725-75.921,129.746C1617.485,2896.844,1578.917,2885.002,1553.172,2859.049z"/>
				<path fill="#252C6B" d="M1783.839,2684.277c-12.667-12.768-22.231-28.945-27.104-47.619l-38.531-147.709
					c-14.773-56.633,19.22-114.719,75.916-129.748c56.699-15.024,114.646,18.714,129.418,75.345l38.535,147.706
					c14.77,56.636-19.211,114.724-75.92,129.748C1848.153,2722.071,1809.585,2710.232,1783.839,2684.277z"/>
				<path fill="#252C6B" d="M2124.563,2931.4c-12.669-12.766-22.226-28.947-27.101-47.621L1894.276,2104.9
					c-14.768-56.639,19.215-114.727,75.92-129.752c56.701-15.022,114.64,18.708,129.418,75.344l203.184,778.884
					c14.775,56.636-19.214,114.722-75.916,129.744C2188.88,2969.191,2150.311,2957.355,2124.563,2931.4z"/>
				<path fill="#252C6B" d="M2354.692,2733.202c-12.664-12.764-22.229-28.946-27.103-47.623l-136.217-522.168
					c-14.771-56.633,19.216-114.723,75.915-129.752c56.71-15.022,114.648,18.714,129.423,75.349l136.218,522.176
					c14.774,56.631-19.215,114.715-75.92,129.744C2419.01,2770.99,2380.436,2759.154,2354.692,2733.202z"/>
				<path fill="#252C6B" d="M2581.999,2545.553c-12.67-12.77-22.228-28.953-27.104-47.627l-74.031-283.789
					c-14.772-56.634,19.215-114.727,75.921-129.752c56.699-15.021,114.64,18.711,129.414,75.35l74.033,283.788
					c14.779,56.635-19.214,114.723-75.915,129.748C2646.312,2583.34,2607.74,2571.506,2581.999,2545.553z"/>
			</g>
		</g>
	</g>
</g>
</svg>
