<svg width="36" height="40" viewBox="0 0 36 40" fill="none" xmlns="http://www.w3.org/2000/svg">
<path fill-rule="evenodd" clip-rule="evenodd" d="M17.3967 0.000302878C21.2026 0.0464068 23.2697 5.29641 24.1789 8.24296C27.2098 7.53956 32.7076 6.62561 34.6466 9.86958C36.595 13.1283 33.0403 17.3869 30.9142 19.5631C33.119 21.8061 36.7989 26.046 34.9487 29.2404C33.1091 32.4164 27.5537 31.4595 24.5557 30.7126C24.2549 31.7848 23.807 33.1362 23.1777 34.4223H21.2988C22.1031 32.9839 22.6316 31.2924 22.9241 30.2544C21.3135 29.7523 19.6059 29.0808 17.8588 28.2655C16.1457 29.0449 14.4857 29.6791 12.9215 30.1463C13.5963 32.3477 15.1131 37.036 17.9423 37.0705C18.5712 37.0781 19.1366 36.8507 19.6425 36.4699V38.3863C19.1287 38.6093 18.5712 38.7321 17.9668 38.7248C14.1747 38.6788 12.2174 33.5626 11.3067 30.5764C8.24593 31.2894 2.70499 32.0645 0.751061 28.7962C-1.18943 25.5489 2.30387 21.4479 4.46429 19.2513C2.23414 16.9915 -1.34334 12.6426 0.519471 9.42635C2.38764 6.20095 7.87915 7.2564 10.9738 8.06009C11.7962 5.1124 13.6068 -0.0454906 17.3967 0.000302878ZM29.7269 20.7061C28.5361 21.7869 27.1603 22.8609 25.6453 23.8957C25.5165 25.7742 25.2835 27.5305 24.9471 29.1145C27.3134 29.701 32.0904 30.7895 33.4779 28.3939C34.8525 26.0207 31.3408 22.3546 29.7269 20.7061ZM5.68868 20.4202C4.09789 22.0386 0.752094 25.5667 2.19939 27.9876C3.65353 30.4196 8.94914 29.4158 10.8638 28.9694C10.4625 27.348 10.1545 25.5831 9.95243 23.7396C8.35972 22.6486 6.9242 21.5333 5.68868 20.4202ZM23.853 25.0607C22.5363 25.8761 21.1804 26.632 19.7955 27.3341C21.0074 27.856 22.1879 28.2989 23.3138 28.6532C23.5458 27.5433 23.726 26.3393 23.853 25.0607ZM11.7964 24.9477C11.9745 26.2033 12.2041 27.4076 12.4801 28.5357C13.5692 28.2064 14.7126 27.7909 15.8931 27.2961C14.4958 26.5704 13.1299 25.784 11.7964 24.9477ZM17.6206 12.3126C15.4731 13.3045 13.4081 14.4583 11.4455 15.7599C11.2981 18.1112 11.3339 20.4785 11.55 22.8341C13.5605 24.1654 15.6581 25.3747 17.8269 26.4308C19.9654 25.4128 22.0381 24.2588 24.0102 22.9638C24.1292 20.6231 24.098 18.2691 23.896 15.9252C21.8975 14.5699 19.7966 13.3616 17.6206 12.3126ZM25.6745 17.1936C25.7637 18.716 25.7844 20.2405 25.7451 21.7615C26.7513 21.027 27.6776 20.2788 28.5066 19.5305C27.6447 18.7437 26.6954 17.9597 25.6745 17.1936ZM9.69729 16.9822C8.67897 17.7334 7.73339 18.504 6.88 19.2776C7.74236 20.0493 8.71032 20.8261 9.76731 21.5966C9.66987 20.0587 9.64609 18.5184 9.69729 16.9822ZM33.1987 10.6782C31.7593 8.27016 26.8442 9.3363 24.6229 9.85028C25.0134 11.4412 25.3078 13.1891 25.4998 15.0355C27.0384 16.1174 28.4524 17.2471 29.6962 18.3877C31.2355 16.8096 34.6521 13.11 33.1987 10.6782ZM10.5756 9.65652C8.29324 9.06098 3.38279 7.86818 1.9901 10.2727C0.596552 12.6786 4.07424 16.5082 5.65203 18.1093C6.88061 16.9892 8.2871 15.8805 9.81971 14.8248C9.96712 13.0002 10.2221 11.2588 10.5756 9.65652ZM23.0033 10.2736C21.8982 10.5956 20.7543 10.9932 19.5915 11.4607C20.9828 12.1796 22.3406 12.9613 23.6604 13.8035C23.4904 12.5584 23.2703 11.3742 23.0033 10.2736ZM12.2056 10.1293C11.965 11.2337 11.7724 12.4099 11.632 13.6381C12.9255 12.833 14.2589 12.0884 15.6269 11.4078C14.4592 10.9115 13.311 10.4822 12.2056 10.1293ZM17.421 1.65462C14.583 1.62024 13.2661 6.15332 12.6021 8.5304C14.2078 9.0384 15.8928 9.69766 17.596 10.4845C19.2863 9.7399 20.9593 9.127 22.5607 8.66455C21.8985 6.52888 20.2622 1.68911 17.421 1.65462Z" fill="#919FCF"/>
<path d="M17.1027 14.8209L17.1812 14.8218L17.1983 14.8221C19.5339 14.8813 21.4025 16.7907 21.4025 19.1305V20.7383C21.7091 20.6691 22.0281 20.6323 22.3557 20.6323C22.8014 20.6323 23.2314 20.7003 23.6359 20.8258C24.2834 19.2644 25.8233 18.1639 27.6241 18.1639L27.7356 18.1653C30.0332 18.2235 31.8796 20.0737 31.9377 22.3624L31.9391 22.4735V33.5813C31.9391 35.921 30.0704 37.8306 27.7356 37.8897L27.6241 37.8911C25.8233 37.8911 24.2833 36.7905 23.6359 35.2291C23.2314 35.3545 22.8015 35.4227 22.3557 35.4227C22.0281 35.4227 21.7091 35.3857 21.4025 35.3165V35.6902C21.4025 38.0299 19.5338 39.9395 17.1989 39.9986L17.0874 40C14.9898 40 13.2462 38.5067 12.8547 36.5314C12.5594 36.6041 12.2522 36.6468 11.9365 36.6553L11.8192 36.6568C9.60066 36.6568 7.77786 34.9864 7.53236 32.8416C7.21702 32.915 6.88848 32.9543 6.55079 32.9543C4.16427 32.9543 2.23574 31.0213 2.23574 28.6445V26.1762C2.23574 23.7994 4.16427 21.8665 6.55079 21.8664C6.88846 21.8664 7.21702 21.9056 7.53236 21.979C7.77793 19.8342 9.60071 18.1639 11.8192 18.1639L11.9365 18.1655C12.2522 18.1739 12.5594 18.2163 12.8547 18.289C13.2463 16.3138 14.99 14.8207 17.0874 14.8207L17.1027 14.8209Z" fill="white"/>
<path d="M29.0646 22.4735C29.0646 21.6764 28.4184 21.0324 27.6241 21.0324C26.8297 21.0324 26.1835 21.6764 26.1835 22.4735V33.5813C26.1835 34.3785 26.8297 35.0226 27.6241 35.0226C28.4184 35.0226 29.0646 34.3785 29.0646 33.5813V22.4735ZM22.3557 23.5008C21.5613 23.5009 20.9151 24.1448 20.9151 24.942V31.1129C20.9151 31.91 21.5613 32.5541 22.3557 32.5542C23.15 32.5542 23.7964 31.9101 23.7964 31.1129V24.942C23.7963 24.1448 23.15 23.5008 22.3557 23.5008ZM5.11026 28.6445C5.11026 29.4417 5.75643 30.0857 6.55079 30.0858C7.34516 30.0858 7.99133 29.4417 7.99133 28.6445V26.1762C7.99133 25.3791 7.34516 24.735 6.55079 24.735C5.75643 24.735 5.11026 25.3791 5.11026 26.1762V28.6445ZM10.3785 32.3472C10.3785 33.1443 11.0248 33.7883 11.8192 33.7883C12.6135 33.7882 13.2597 33.1443 13.2597 32.3472V22.4735C13.2597 21.6764 12.6135 21.0325 11.8192 21.0324C11.0248 21.0324 10.3785 21.6764 10.3785 22.4735V32.3472ZM18.528 19.1305C18.528 18.3583 17.9216 17.7297 17.1615 17.6911L17.0874 17.6892C16.2931 17.6892 15.6469 18.3333 15.6469 19.1305V35.6902C15.6469 36.4874 16.2931 37.1315 17.0874 37.1315C17.8818 37.1315 18.528 36.4874 18.528 35.6902V19.1305ZM20.1249 22.8825C20.6796 22.283 21.4734 21.9072 22.3557 21.9072C23.238 21.9072 24.0319 22.2829 24.5866 22.8825V22.4735C24.5866 20.7987 25.9453 19.4388 27.6241 19.4388C29.3028 19.4388 30.6615 20.7987 30.6615 22.4735V33.5813C30.6615 35.2562 29.3028 36.6162 27.6241 36.6162C25.9453 36.6162 24.5866 35.2562 24.5866 33.5813V33.1723C24.0319 33.7719 23.238 34.1478 22.3557 34.1478C21.4733 34.1478 20.6796 33.7719 20.1249 33.1723V35.6902C20.1249 37.3651 18.7662 38.7251 17.0874 38.7251C15.4086 38.7251 14.0499 37.3651 14.0499 35.6902V34.4064C13.4952 35.0061 12.7015 35.3819 11.8192 35.3819C10.1404 35.3819 8.78156 34.022 8.78154 32.3472V30.7041C8.22683 31.3036 7.43308 31.6794 6.55079 31.6794C4.87201 31.6794 3.5133 30.3193 3.5133 28.6445V26.1762C3.5133 24.5014 4.87201 23.1414 6.55079 23.1413C7.43304 23.1413 8.22683 23.517 8.78154 24.1165V22.4735C8.78156 20.7987 10.1404 19.4388 11.8192 19.4388C12.7015 19.4388 13.4952 19.8146 14.0499 20.4141V19.1305C14.0499 17.4557 15.4086 16.0956 17.0874 16.0956L17.1659 16.0966C18.8083 16.1381 20.1249 17.4818 20.1249 19.1305V22.8825Z" fill="#001A72"/>
</svg>
