<svg version="1.1" xmlns="http://www.w3.org/2000/svg" viewBox="0 0 806.429 194.922">
<path fill="#001A72" d="M33.5,107.168h18.001l25.401,70.004H60.801l-5.4-15.301H28.799l-5.4,15.301H7.898L33.5,107.168z
    M51.301,149.77L42,123.168l-9.2,26.602H51.301z"/>
<path fill="#001A72" d="M145.102,177.172h-12.501l-1.3-6.2c-1.8,2.133-3.9,3.8-6.3,5c-2.4,1.2-5.334,1.8-8.801,1.8
  c-6,0-10.9-1.85-14.701-5.55s-5.7-9.884-5.7-18.552v-27.901h14.101v26.202c0,4.666,0.817,8.184,2.45,10.551
  c1.633,2.366,4.15,3.55,7.55,3.55c3.534,0,6.267-1.317,8.201-3.95c1.934-2.634,2.9-6.317,2.9-11.051v-25.302h14.101V177.172z"/>
<path fill="#001A72" d="M222.7,177.172h-12.3l-1.4-7.101c-3.934,5.134-9.267,7.7-16.001,7.7c-4.534,0-8.601-1.083-12.201-3.25
  s-6.417-5.25-8.451-9.25c-2.033-4-3.05-8.635-3.05-13.901c0-5.2,1.017-9.784,3.05-13.751c2.034-3.967,4.867-7.033,8.5-9.2
  c3.634-2.167,7.717-3.25,12.251-3.25c6.667,0,11.834,2.333,15.501,7v-25.001H222.7V177.172z M208.799,151.571
  c0-4.467-1.133-8.067-3.4-10.801c-2.267-2.733-5.3-4.1-9.101-4.1s-6.851,1.366-9.15,4.1c-2.3,2.733-3.45,6.301-3.45,10.701
  s1.15,7.967,3.45,10.7c2.3,2.733,5.35,4.101,9.15,4.101s6.833-1.351,9.101-4.051C207.666,159.522,208.799,155.971,208.799,151.571
  z"/>
<path fill="#001A72" d="M264.098,112.268c0,2.268-0.767,4.168-2.3,5.701c-1.534,1.533-3.467,2.3-5.801,2.3
  c-2.333,0-4.283-0.767-5.85-2.3s-2.35-3.434-2.35-5.701c0-2.267,0.783-4.15,2.35-5.65s3.517-2.25,5.85-2.25
  c2.333,0,4.267,0.75,5.801,2.25C263.331,108.118,264.098,110.001,264.098,112.268z M262.998,125.769v51.403h-14.101v-51.403
  H262.998z"/>
<path fill="#001A72" d="M290.547,165.272c-2.233-4-3.35-8.602-3.35-13.801c0-5.201,1.117-9.801,3.35-13.801s5.4-7.084,9.5-9.251
  s8.851-3.25,14.251-3.25s10.15,1.083,14.25,3.25c4.101,2.167,7.268,5.251,9.501,9.251s3.35,8.6,3.35,13.801
  c0,5.267-1.116,9.884-3.35,13.851s-5.4,7.033-9.501,9.2c-4.1,2.167-8.85,3.25-14.25,3.25s-10.151-1.083-14.251-3.25
  S292.78,169.272,290.547,165.272z M327.099,151.471c0-4.4-1.15-7.968-3.45-10.701c-2.3-2.733-5.417-4.1-9.351-4.1
  c-3.867,0-6.951,1.366-9.25,4.1c-2.3,2.733-3.45,6.301-3.45,10.701s1.15,7.967,3.45,10.7c2.3,2.733,5.383,4.101,9.25,4.101
  c3.934,0,7.05-1.367,9.351-4.101C325.949,159.438,327.099,155.872,327.099,151.471z"/>
<path fill="#001A72" d="M427.896,107.168h18.001l25.401,70.004h-16.101l-5.4-15.301h-26.602l-5.4,15.301h-15.501L427.896,107.168z
    M445.697,149.77l-9.301-26.602l-9.2,26.602H445.697z"/>
<path fill="#001A72" d="M535.847,110.018c3.834,1.9,6.801,4.617,8.9,8.15c2.101,3.533,3.15,7.635,3.15,12.301
  c0,4.667-1.05,8.751-3.15,12.251c-2.1,3.501-5.066,6.2-8.9,8.101s-8.251,2.85-13.251,2.85h-13.501v23.502h-15.001v-70.004h28.502
  C527.596,107.168,532.013,108.118,535.847,110.018z M521.195,141.17c3.534,0,6.334-0.967,8.401-2.9
  c2.066-1.934,3.1-4.533,3.1-7.801c0-3.334-1.033-5.967-3.1-7.9c-2.067-1.934-4.867-2.9-8.401-2.9h-12.101v21.502H521.195z"/>
<path fill="#001A72" d="M587.694,107.168v70.004h-15.001v-70.004H587.694z"/>
<path fill="#001A72" d="M7.498,86.261V17.15H34.55c4.015,0,7.635,0.955,10.86,2.863c3.291,1.843,5.891,4.377,7.8,7.603
  c1.908,3.225,2.863,6.878,2.863,10.959c0,3.817-0.922,7.273-2.765,10.366c-1.843,3.094-4.345,5.562-7.504,7.405
  c-3.159,1.777-6.713,2.666-10.662,2.666H15.199v27.25H7.498z M49.655,86.261L32.279,55.853l7.404-2.567l19.153,32.976H49.655z
    M15.199,51.508h20.634c2.436,0,4.575-0.559,6.418-1.678s3.291-2.633,4.344-4.542c1.053-1.975,1.58-4.212,1.58-6.713
  c0-2.699-0.626-5.101-1.876-7.208c-1.251-2.106-2.995-3.751-5.232-4.937c-2.173-1.185-4.674-1.777-7.504-1.777H15.199V51.508z
    M82.548,86.261V17.15h41.861v7.504h-34.16v54.103h33.963v7.504H82.548z M86.102,54.47v-7.503h32.778v7.503H86.102z
    M143.823,86.261l26.459-69.111h8.786l26.263,69.111h-8.393l-16.883-44.823c-0.461-1.25-0.987-2.699-1.579-4.344
  c-0.526-1.711-1.119-3.455-1.777-5.232c-0.593-1.843-1.185-3.62-1.777-5.332c-0.526-1.711-1.021-3.225-1.481-4.542h1.976
  c-0.527,1.646-1.086,3.324-1.678,5.035c-0.527,1.646-1.087,3.324-1.68,5.035c-0.592,1.646-1.185,3.291-1.776,4.937
  c-0.593,1.646-1.186,3.291-1.777,4.937l-16.784,44.33H143.823z M155.078,67.207l2.862-7.503h32.68l3.16,7.503H155.078z
    M254.53,87.249c-4.938,0-9.479-0.856-13.625-2.567c-4.146-1.777-7.734-4.245-10.762-7.404c-3.027-3.225-5.397-7.01-7.108-11.354
  c-1.646-4.344-2.469-9.083-2.469-14.217c0-5.068,0.823-9.708,2.469-13.921c1.711-4.278,4.113-7.997,7.207-11.156
  c3.094-3.226,6.681-5.693,10.762-7.405s8.556-2.567,13.427-2.567c3.226,0,6.417,0.526,9.577,1.58
  c3.159,0.987,6.055,2.37,8.688,4.146c2.698,1.777,4.903,3.817,6.614,6.121l-5.332,5.529c-1.645-1.975-3.554-3.686-5.726-5.134
  c-2.106-1.448-4.344-2.567-6.713-3.357c-2.37-0.79-4.739-1.185-7.109-1.185c-3.686,0-7.141,0.691-10.367,2.073
  c-3.158,1.316-5.89,3.192-8.193,5.627c-2.305,2.436-4.114,5.332-5.431,8.688c-1.251,3.356-1.876,7.01-1.876,10.959
  c0,4.081,0.625,7.833,1.876,11.254c1.316,3.424,3.159,6.385,5.529,8.887c2.436,2.436,5.265,4.344,8.49,5.727
  c3.291,1.316,6.943,1.975,10.959,1.975c2.37,0,4.739-0.33,7.108-0.988c2.369-0.724,4.541-1.711,6.517-2.961
  c1.975-1.252,3.653-2.666,5.035-4.246l3.948,6.418c-1.513,1.842-3.554,3.488-6.12,4.936c-2.501,1.383-5.266,2.502-8.293,3.357
  C260.585,86.853,257.557,87.249,254.53,87.249z M315.028,86.261V24.654h-19.746V17.15h47.983v7.504h-20.536v61.607H315.028z
    M403.708,86.261V17.15h7.009l45.218,59.83l-1.382,1.777c-0.197-1.053-0.362-2.633-0.493-4.738
  c-0.066-2.106-0.165-4.477-0.297-7.109c-0.065-2.697-0.131-5.496-0.197-8.391c-0.065-2.896-0.132-5.727-0.197-8.491
  c0-2.764,0-5.266,0-7.503V17.15h7.7v69.111h-7.207l-45.021-59.04l1.185-2.074c0.198,2.633,0.362,5.233,0.494,7.8
  c0.197,2.567,0.329,5.035,0.396,7.405c0.131,2.37,0.229,4.542,0.296,6.516c0.065,1.975,0.099,3.653,0.099,5.035
  c0.066,1.382,0.098,2.37,0.098,2.962v31.396H403.708z M483.59,86.261l26.46-69.111h8.787l26.262,69.111h-8.393l-16.883-44.823
  c-0.461-1.25-0.986-2.699-1.58-4.344c-0.525-1.711-1.118-3.455-1.776-5.232c-0.592-1.843-1.185-3.62-1.777-5.332
  c-0.526-1.711-1.02-3.225-1.48-4.542h1.975c-0.527,1.646-1.086,3.324-1.679,5.035c-0.526,1.646-1.086,3.324-1.678,5.035
  c-0.593,1.646-1.186,3.291-1.777,4.937c-0.594,1.646-1.186,3.291-1.777,4.937l-16.784,44.33H483.59z M494.846,67.207l2.863-7.503
  h32.679l3.159,7.503H494.846z M575.216,86.261V24.654H555.47V17.15h47.982v7.504h-20.535v61.607H575.216z M623.092,86.261v-7.307
  h11.155V24.457h-11.155V17.15h30.014v7.306h-11.157v54.498h11.157v7.307H623.092z M699.146,86.261L672.391,17.15h8.688
  l17.179,45.021c0.79,2.041,1.48,3.85,2.073,5.43s1.118,3.094,1.58,4.542c0.526,1.382,1.02,2.765,1.48,4.146s0.954,2.896,1.48,4.542
  l-2.566,0.098c0.658-2.237,1.283-4.311,1.876-6.219c0.658-1.909,1.315-3.852,1.974-5.826c0.725-2.039,1.613-4.409,2.666-7.107
  l17.08-44.626h8.688l-27.545,69.111H699.146z M757.069,86.261V17.15h41.861v7.504h-34.16v54.103h33.963v7.504H757.069z
    M760.624,54.47v-7.503h32.777v7.503H760.624z"/>
</svg>
