<?xml version="1.0" encoding="utf-8"?>
<!-- Generator: Adobe Illustrator 16.0.0, SVG Export Plug-In . SVG Version: 6.00 Build 0)  -->
<!DOCTYPE svg PUBLIC "-//W3C//DTD SVG 1.1//EN" "http://www.w3.org/Graphics/SVG/1.1/DTD/svg11.dtd">
<svg version="1.1" id="Layer_1" xmlns="http://www.w3.org/2000/svg" xmlns:xlink="http://www.w3.org/1999/xlink" x="0px" y="0px"
	 width="809px" height="202px" viewBox="0 0 809 202" enable-background="new 0 0 809 202" xml:space="preserve">
<path fill="#FFFFFF" d="M10.169,92.922V23.811h27.052c4.015,0,7.635,0.955,10.86,2.863c3.291,1.843,5.891,4.377,7.8,7.603
	c1.908,3.225,2.863,6.878,2.863,10.959c0,3.817-0.922,7.273-2.765,10.366c-1.843,3.094-4.345,5.562-7.504,7.405
	c-3.159,1.777-6.713,2.666-10.662,2.666H17.87v27.25H10.169z M52.326,92.922L34.95,62.513l7.404-2.567l19.153,32.976H52.326z
	 M17.87,58.169h20.634c2.436,0,4.575-0.559,6.418-1.678s3.291-2.633,4.344-4.542c1.053-1.975,1.58-4.212,1.58-6.713
	c0-2.699-0.626-5.101-1.876-7.208c-1.251-2.106-2.995-3.751-5.232-4.937c-2.173-1.185-4.674-1.777-7.504-1.777H17.87V58.169z
	 M85.219,92.922V23.811h41.861v7.504H92.92v54.104h33.963v7.503H85.219z M88.773,61.131v-7.503h32.778v7.503H88.773z
	 M146.494,92.922l26.459-69.111h8.786l26.263,69.111h-8.393l-16.883-44.823c-0.461-1.25-0.987-2.699-1.579-4.344
	c-0.526-1.711-1.119-3.455-1.777-5.232c-0.593-1.843-1.185-3.62-1.777-5.332c-0.526-1.711-1.021-3.225-1.481-4.542h1.976
	c-0.527,1.646-1.086,3.324-1.678,5.035c-0.527,1.646-1.087,3.324-1.68,5.035c-0.592,1.646-1.185,3.291-1.776,4.937
	c-0.593,1.646-1.186,3.291-1.777,4.937l-16.784,44.33H146.494z M157.749,73.867l2.862-7.503h32.68l3.16,7.503H157.749z
	 M257.201,93.909c-4.938,0-9.479-0.856-13.625-2.567c-4.146-1.777-7.734-4.246-10.762-7.405c-3.027-3.225-5.397-7.01-7.108-11.354
	c-1.646-4.344-2.469-9.083-2.469-14.217c0-5.068,0.823-9.708,2.469-13.921c1.711-4.278,4.113-7.997,7.207-11.156
	c3.094-3.226,6.681-5.693,10.762-7.405s8.556-2.567,13.427-2.567c3.226,0,6.417,0.526,9.577,1.58
	c3.159,0.987,6.055,2.37,8.688,4.146c2.698,1.777,4.903,3.817,6.614,6.121l-5.332,5.529c-1.645-1.975-3.554-3.686-5.726-5.134
	c-2.106-1.448-4.344-2.567-6.713-3.357c-2.37-0.79-4.739-1.185-7.109-1.185c-3.686,0-7.141,0.691-10.367,2.073
	c-3.158,1.316-5.89,3.192-8.193,5.627c-2.305,2.436-4.114,5.332-5.431,8.688c-1.251,3.356-1.876,7.01-1.876,10.959
	c0,4.081,0.625,7.833,1.876,11.255c1.316,3.423,3.159,6.385,5.529,8.886c2.436,2.436,5.265,4.344,8.49,5.727
	c3.291,1.316,6.943,1.975,10.959,1.975c2.37,0,4.739-0.329,7.108-0.987c2.369-0.724,4.541-1.711,6.517-2.962
	c1.975-1.251,3.653-2.666,5.035-4.246l3.948,6.417c-1.513,1.843-3.554,3.488-6.12,4.937c-2.501,1.382-5.266,2.501-8.293,3.356
	C263.256,93.514,260.228,93.909,257.201,93.909z M317.699,92.922V31.315h-19.746v-7.504h47.983v7.504h-20.536v61.607H317.699z
	 M406.379,92.922V23.811h7.009l45.218,59.83l-1.382,1.777c-0.197-1.053-0.362-2.633-0.493-4.739
	c-0.066-2.106-0.165-4.476-0.297-7.108c-0.065-2.698-0.131-5.496-0.197-8.392c-0.065-2.896-0.132-5.727-0.197-8.491
	c0-2.764,0-5.266,0-7.503V23.811h7.7v69.111h-7.207l-45.021-59.04l1.185-2.074c0.198,2.633,0.362,5.233,0.494,7.8
	c0.197,2.567,0.329,5.035,0.396,7.405c0.131,2.37,0.229,4.542,0.296,6.516c0.065,1.975,0.099,3.653,0.099,5.035
	c0.066,1.382,0.098,2.37,0.098,2.962v31.396H406.379z M486.261,92.922l26.46-69.111h8.787l26.262,69.111h-8.393l-16.883-44.823
	c-0.461-1.25-0.986-2.699-1.58-4.344c-0.525-1.711-1.118-3.455-1.776-5.232c-0.592-1.843-1.185-3.62-1.777-5.332
	c-0.526-1.711-1.02-3.225-1.48-4.542h1.975c-0.527,1.646-1.086,3.324-1.679,5.035c-0.526,1.646-1.086,3.324-1.678,5.035
	c-0.593,1.646-1.186,3.291-1.777,4.937c-0.594,1.646-1.186,3.291-1.777,4.937l-16.784,44.33H486.261z M497.517,73.867l2.863-7.503
	h32.679l3.159,7.503H497.517z M577.887,92.922V31.315h-19.746v-7.504h47.982v7.504h-20.535v61.607H577.887z M625.763,92.922v-7.306
	h11.155V31.117h-11.155v-7.306h30.014v7.306h-11.157v54.499h11.157v7.306H625.763z M701.818,92.922l-26.756-69.111h8.688
	l17.179,45.021c0.79,2.041,1.48,3.85,2.073,5.43c0.593,1.58,1.118,3.093,1.58,4.542c0.526,1.382,1.02,2.764,1.48,4.146
	s0.954,2.896,1.48,4.542l-2.566,0.099c0.658-2.238,1.283-4.311,1.876-6.22c0.658-1.909,1.315-3.851,1.974-5.825
	c0.725-2.04,1.613-4.41,2.666-7.108l17.08-44.626h8.688l-27.545,69.111H701.818z M759.74,92.922V23.811h41.861v7.504h-34.16v54.104
	h33.963v7.503H759.74z M763.295,61.131v-7.503h32.777v7.503H763.295z"/>
<path display="none" fill="#001A72" d="M38.822,183.861c-5.264,0-10.026-0.846-14.287-2.537c-4.262-1.692-7.928-4.073-10.998-7.145
	c-3.071-3.07-5.421-6.674-7.051-10.81c-1.629-4.199-2.443-8.742-2.443-13.63c0-4.889,0.846-9.369,2.538-13.442
	c1.754-4.136,4.229-7.739,7.426-10.81c3.196-3.071,6.956-5.452,11.28-7.145c4.387-1.691,9.148-2.537,14.287-2.537
	c3.635,0,7.051,0.469,10.246,1.41c3.259,0.939,6.204,2.225,8.836,3.854c2.633,1.629,4.857,3.509,6.675,5.64l-9.683,10.246
	c-1.566-1.504-3.195-2.757-4.888-3.761c-1.629-1.002-3.384-1.785-5.264-2.35c-1.88-0.627-3.886-0.939-6.017-0.939
	c-2.757,0-5.295,0.5-7.613,1.504c-2.257,1.003-4.262,2.412-6.017,4.23c-1.691,1.754-3.008,3.854-3.948,6.297
	c-0.939,2.381-1.409,4.982-1.409,7.803s0.501,5.451,1.504,7.896c1.002,2.443,2.381,4.574,4.136,6.391
	c1.755,1.756,3.822,3.166,6.204,4.23c2.443,1.004,5.045,1.504,7.802,1.504c1.942,0,3.76-0.313,5.452-0.939
	c1.755-0.627,3.259-1.473,4.512-2.539c1.254-1.064,2.256-2.318,3.008-3.76c0.752-1.504,1.128-3.102,1.128-4.793v-2.444l2.068,3.196
	H38.164V145.98H69.09c0.125,0.688,0.219,1.629,0.282,2.82c0.063,1.189,0.094,2.35,0.094,3.477c0.063,1.129,0.094,1.975,0.094,2.539
	c0,4.261-0.783,8.178-2.35,11.75c-1.504,3.508-3.635,6.549-6.393,9.117c-2.757,2.569-6.016,4.576-9.775,6.016
	C47.281,183.141,43.208,183.861,38.822,183.861z M105.865,183.861c-5.514,0-10.308-1.096-14.381-3.289
	c-4.073-2.256-7.238-5.295-9.494-9.118c-2.256-3.886-3.384-8.304-3.384-13.255c0-3.822,0.626-7.331,1.88-10.527
	c1.253-3.195,3.008-5.953,5.264-8.271c2.256-2.381,4.919-4.199,7.99-5.453c3.133-1.315,6.549-1.973,10.245-1.973
	c3.511,0,6.706,0.627,9.588,1.879c2.946,1.254,5.484,3.008,7.614,5.265c2.131,2.256,3.76,4.919,4.889,7.989
	c1.128,3.072,1.63,6.424,1.504,10.059l-0.095,4.042H87.723l-2.162-8.46h29.704l-1.598,1.785v-1.879
	c-0.125-1.567-0.626-2.945-1.504-4.137c-0.814-1.252-1.911-2.225-3.29-2.914c-1.378-0.688-2.945-1.033-4.7-1.033
	c-2.444,0-4.543,0.5-6.298,1.504c-1.692,0.939-2.977,2.35-3.854,4.23c-0.878,1.816-1.316,4.072-1.316,6.768
	c0,2.757,0.563,5.17,1.692,7.238c1.19,2.004,2.882,3.571,5.075,4.699c2.256,1.129,4.92,1.692,7.99,1.692
	c2.131,0,4.011-0.313,5.64-0.94c1.692-0.627,3.51-1.691,5.452-3.195l7.05,9.963c-1.941,1.693-4.01,3.072-6.204,4.137
	c-2.192,1.064-4.448,1.85-6.768,2.35C110.377,183.58,108.121,183.861,105.865,183.861z M155.867,183.861
	c-4.889,0-9.213-0.782-12.973-2.35c-3.697-1.566-6.642-3.666-8.836-6.298l9.118-7.896c1.943,1.943,4.136,3.384,6.58,4.324
	c2.444,0.877,4.763,1.315,6.956,1.315c0.878,0,1.661-0.095,2.35-0.282c0.69-0.188,1.254-0.439,1.692-0.752
	c0.502-0.376,0.878-0.783,1.128-1.222c0.251-0.501,0.376-1.065,0.376-1.692c0-1.253-0.564-2.225-1.692-2.914
	c-0.563-0.313-1.504-0.689-2.819-1.127c-1.316-0.439-3.009-0.941-5.076-1.505c-2.945-0.752-5.515-1.629-7.708-2.632
	c-2.13-1.064-3.885-2.287-5.265-3.666c-1.253-1.316-2.224-2.758-2.913-4.324c-0.689-1.629-1.034-3.447-1.034-5.451
	c0-2.32,0.533-4.418,1.598-6.299c1.128-1.88,2.602-3.509,4.418-4.888c1.88-1.38,4.011-2.413,6.393-3.103
	c2.443-0.752,4.95-1.127,7.52-1.127c2.758,0,5.39,0.313,7.896,0.939s4.825,1.504,6.955,2.632c2.194,1.128,4.137,2.476,5.828,4.042
	l-7.896,8.836c-1.128-1.064-2.412-2.005-3.854-2.82c-1.378-0.877-2.819-1.566-4.323-2.067c-1.505-0.501-2.883-0.753-4.137-0.753
	c-0.939,0-1.786,0.095-2.538,0.283c-0.688,0.125-1.283,0.375-1.785,0.752c-0.502,0.313-0.878,0.721-1.129,1.222
	c-0.25,0.438-0.376,0.972-0.376,1.599s0.157,1.221,0.471,1.785c0.376,0.564,0.878,1.034,1.504,1.41
	c0.627,0.376,1.63,0.814,3.008,1.316c1.379,0.438,3.259,1.002,5.64,1.691c2.946,0.814,5.484,1.723,7.614,2.727
	c2.131,1.002,3.823,2.193,5.076,3.572c1.003,1.064,1.755,2.318,2.256,3.76c0.502,1.379,0.752,2.883,0.752,4.512
	c0,3.195-0.908,6.047-2.726,8.555c-1.754,2.443-4.198,4.387-7.332,5.827C163.45,183.173,159.878,183.861,155.867,183.861z
	 M191.598,182.922v-62.51h15.04v62.51H191.598z M182.762,146.168v-13.16h33.558v13.16H182.762z M243.81,183.956
	c-3.698,0-6.862-0.783-9.494-2.351c-2.569-1.629-4.575-3.947-6.016-6.955c-1.379-3.008-2.068-6.611-2.068-10.811v-30.832h15.134
	v28.764c0,2.006,0.313,3.729,0.94,5.17c0.626,1.441,1.566,2.57,2.82,3.385c1.253,0.752,2.757,1.128,4.512,1.128
	c1.316,0,2.506-0.22,3.572-0.658c1.128-0.438,2.067-1.034,2.819-1.786c0.814-0.814,1.441-1.723,1.881-2.727
	c0.438-1.064,0.657-2.225,0.657-3.477v-29.799h15.135v49.914h-14.194l-0.658-10.246l2.82-1.128c-0.752,2.382-2.006,4.513-3.76,6.392
	c-1.756,1.817-3.854,3.291-6.299,4.418C249.168,183.423,246.567,183.956,243.81,183.956z M288.986,182.922v-49.914h14.288
	l0.658,16.262l-2.82-3.102c0.752-2.695,1.975-5.107,3.666-7.238c1.755-2.131,3.791-3.822,6.11-5.076
	c2.319-1.252,4.794-1.879,7.426-1.879c1.128,0,2.162,0.094,3.103,0.281c1.002,0.188,1.91,0.407,2.726,0.658l-4.136,16.639
	c-0.689-0.439-1.629-0.783-2.82-1.035c-1.128-0.313-2.319-0.47-3.572-0.47c-1.379,0-2.663,0.251-3.854,0.753
	c-1.191,0.438-2.193,1.096-3.008,1.973c-0.815,0.877-1.474,1.912-1.975,3.103c-0.438,1.19-0.658,2.538-0.658,4.042v25.004H288.986z
	 M355.314,183.861c-5.515,0-10.309-1.096-14.382-3.289c-4.073-2.256-7.238-5.295-9.494-9.118c-2.256-3.886-3.384-8.304-3.384-13.255
	c0-3.822,0.627-7.331,1.88-10.527c1.253-3.195,3.008-5.953,5.264-8.271c2.256-2.381,4.919-4.199,7.99-5.453
	c3.133-1.315,6.549-1.973,10.246-1.973c3.509,0,6.705,0.627,9.588,1.879c2.945,1.254,5.483,3.008,7.614,5.265
	c2.131,2.256,3.76,4.919,4.888,7.989c1.128,3.072,1.629,6.424,1.504,10.059l-0.094,4.042h-39.762l-2.162-8.46h29.704l-1.599,1.785
	v-1.879c-0.125-1.567-0.627-2.945-1.504-4.137c-0.814-1.252-1.911-2.225-3.29-2.914c-1.379-0.688-2.944-1.033-4.7-1.033
	c-2.443,0-4.543,0.5-6.298,1.504c-1.691,0.939-2.977,2.35-3.854,4.23c-0.877,1.816-1.316,4.072-1.316,6.768
	c0,2.757,0.564,5.17,1.692,7.238c1.19,2.004,2.883,3.571,5.076,4.699c2.256,1.129,4.919,1.692,7.989,1.692
	c2.132,0,4.012-0.313,5.641-0.94c1.691-0.627,3.509-1.691,5.452-3.195l7.05,9.963c-1.943,1.693-4.011,3.072-6.204,4.137
	s-4.449,1.85-6.768,2.35C359.825,183.58,357.57,183.861,355.314,183.861z M462.873,182.922v-65.8h15.98v65.8H462.873z
	 M422.077,182.922v-65.8h15.98v65.8H422.077z M428.281,157.26l0.094-14.287h42.959v14.287H428.281z M514.037,183.768
	c-4.198,0-7.959-1.097-11.279-3.289c-3.26-2.256-5.86-5.328-7.803-9.213c-1.942-3.947-2.914-8.396-2.914-13.348
	c0-5.076,0.972-9.557,2.914-13.441s4.606-6.926,7.99-9.119c3.384-2.256,7.238-3.383,11.563-3.383c2.381,0,4.543,0.344,6.485,1.033
	c2.005,0.689,3.761,1.661,5.265,2.914c1.504,1.191,2.788,2.602,3.854,4.23c1.065,1.566,1.848,3.259,2.35,5.076l-3.102-0.377v-11.844
	h14.946v49.914h-15.229v-12.031l3.384-0.095c-0.502,1.755-1.315,3.415-2.443,4.981c-1.128,1.568-2.507,2.945-4.136,4.137
	c-1.63,1.191-3.447,2.131-5.452,2.82C518.424,183.423,516.293,183.768,514.037,183.768z M518.174,171.078
	c2.317,0,4.324-0.533,6.016-1.598c1.692-1.065,3.008-2.569,3.948-4.512c0.939-2.006,1.41-4.355,1.41-7.051s-0.471-5.014-1.41-6.956
	c-0.94-2.005-2.256-3.541-3.948-4.606c-1.691-1.127-3.698-1.691-6.016-1.691c-2.256,0-4.23,0.564-5.922,1.691
	c-1.631,1.065-2.914,2.602-3.854,4.606c-0.94,1.942-1.41,4.261-1.41,6.956s0.47,5.045,1.41,7.051
	c0.94,1.942,2.224,3.446,3.854,4.512C513.944,170.545,515.918,171.078,518.174,171.078z M559.455,182.922v-49.914h14.288
	l0.471,10.152l-3.009,1.128c0.69-2.257,1.912-4.293,3.666-6.11c1.818-1.88,3.98-3.384,6.486-4.512
	c2.507-1.128,5.139-1.691,7.896-1.691c3.76,0,6.925,0.782,9.494,2.35c2.569,1.504,4.512,3.791,5.827,6.861
	c1.316,3.008,1.975,6.705,1.975,11.092v30.645h-15.134V153.5c0-2.005-0.282-3.666-0.847-4.982c-0.563-1.315-1.44-2.287-2.632-2.914
	c-1.128-0.688-2.538-1.002-4.23-0.939c-1.315,0-2.537,0.219-3.666,0.658c-1.127,0.375-2.099,0.971-2.914,1.785
	c-0.813,0.752-1.472,1.629-1.974,2.633c-0.438,1.003-0.658,2.099-0.658,3.289v29.893h-7.426c-1.754,0-3.258,0-4.512,0
	C561.305,182.922,560.271,182.922,559.455,182.922z M639.898,183.956c-4.324,0-8.178-1.097-11.562-3.29
	c-3.321-2.256-5.953-5.327-7.896-9.212c-1.941-3.948-2.914-8.429-2.914-13.442c0-5.013,0.973-9.463,2.914-13.348
	c1.943-3.947,4.606-7.051,7.99-9.307s7.27-3.383,11.656-3.383c2.256,0,4.418,0.344,6.485,1.033c2.068,0.689,3.948,1.629,5.64,2.82
	c1.692,1.191,3.071,2.568,4.137,4.136c1.066,1.505,1.691,3.071,1.88,4.7l-3.572,0.846v-32.148h15.134v69.561h-14.006l-0.846-11.374
	l3.008,0.47c-0.188,1.567-0.813,3.071-1.88,4.512c-1.002,1.441-2.317,2.727-3.948,3.855c-1.629,1.064-3.509,1.91-5.64,2.537
	C644.409,183.611,642.217,183.956,639.898,183.956z M643.752,171.454c2.318,0,4.323-0.563,6.016-1.692
	c1.691-1.127,2.977-2.695,3.854-4.699c0.94-2.006,1.41-4.355,1.41-7.051c0-2.757-0.47-5.139-1.41-7.144
	c-0.877-2.005-2.162-3.572-3.854-4.7c-1.692-1.128-3.697-1.691-6.016-1.691s-4.324,0.563-6.017,1.691
	c-1.629,1.128-2.914,2.695-3.854,4.7c-0.94,2.005-1.41,4.387-1.41,7.144c0,2.695,0.47,5.045,1.41,7.051
	c0.939,2.004,2.225,3.572,3.854,4.699C639.428,170.891,641.434,171.454,643.752,171.454z M684.482,182.922v-69.561h15.04v69.561
	H684.482z M737.681,183.861c-5.515,0-10.31-1.096-14.382-3.289c-4.073-2.256-7.238-5.295-9.494-9.118
	c-2.256-3.886-3.384-8.304-3.384-13.255c0-3.822,0.627-7.331,1.88-10.527c1.253-3.195,3.008-5.953,5.264-8.271
	c2.256-2.381,4.919-4.199,7.99-5.453c3.133-1.315,6.549-1.973,10.246-1.973c3.509,0,6.705,0.627,9.588,1.879
	c2.945,1.254,5.482,3.008,7.613,5.265c2.132,2.256,3.761,4.919,4.889,7.989c1.128,3.072,1.629,6.424,1.504,10.059l-0.094,4.042
	h-39.762l-2.162-8.46h29.703l-1.598,1.785v-1.879c-0.125-1.567-0.627-2.945-1.504-4.137c-0.814-1.252-1.911-2.225-3.29-2.914
	c-1.379-0.688-2.945-1.033-4.7-1.033c-2.443,0-4.543,0.5-6.298,1.504c-1.692,0.939-2.977,2.35-3.854,4.23
	c-0.877,1.816-1.315,4.072-1.315,6.768c0,2.757,0.563,5.17,1.692,7.238c1.19,2.004,2.883,3.571,5.076,4.699
	c2.256,1.129,4.918,1.692,7.989,1.692c2.131,0,4.011-0.313,5.64-0.94c1.692-0.627,3.51-1.691,5.452-3.195l7.051,9.963
	c-1.943,1.693-4.012,3.072-6.204,4.137c-2.193,1.064-4.449,1.85-6.769,2.35C742.193,183.58,739.937,183.861,737.681,183.861z
	 M770.857,182.922v-49.914h14.288l0.658,16.262l-2.82-3.102c0.752-2.695,1.975-5.107,3.666-7.238
	c1.755-2.131,3.792-3.822,6.11-5.076c2.318-1.252,4.794-1.879,7.426-1.879c1.128,0,2.162,0.094,3.102,0.281
	c1.003,0.188,1.912,0.407,2.727,0.658l-4.136,16.639c-0.689-0.439-1.629-0.783-2.82-1.035c-1.128-0.313-2.318-0.47-3.572-0.47
	c-1.378,0-2.663,0.251-3.854,0.753c-1.19,0.438-2.193,1.096-3.008,1.973s-1.473,1.912-1.975,3.103
	c-0.438,1.19-0.658,2.538-0.658,4.042v25.004H770.857z"/>
<text transform="matrix(1 0 0 1 10.1692 185.5)" fill="#FFFFFF" stroke="#FFFFFF" stroke-miterlimit="10" font-family="'Aeonik-Bold'" font-size="100">AUDIO API</text>
</svg>
