<svg width="116" height="31" viewBox="0 0 116 31" fill="none" xmlns="http://www.w3.org/2000/svg">
<path d="M110.041 10.502V0.685232H116V1.75105H111.138V9.43615H115.972V10.502H110.041ZM110.547 5.98627V4.92045H115.213V5.98627H110.547Z" fill="white"/>
<path d="M101.656 10.502L97.8476 0.685232H99.0843L101.53 7.08013C101.642 7.36996 101.74 7.62707 101.825 7.85145C101.909 8.07583 101.984 8.29086 102.05 8.49655C102.124 8.69288 102.195 8.88922 102.26 9.08555C102.326 9.28189 102.396 9.49692 102.471 9.73065L102.106 9.74468C102.199 9.4268 102.288 9.1323 102.373 8.86117C102.466 8.59004 102.56 8.31424 102.654 8.03376C102.757 7.74393 102.883 7.40736 103.033 7.02404L105.464 0.685232H106.701L102.78 10.502H101.656Z" fill="white"/>
<path d="M90.6898 10.502V9.4642H92.2779V1.723H90.6898V0.685232H94.962V1.723H93.374V9.4642H94.962V10.502H90.6898Z" fill="white"/>
<path d="M83.7346 10.502V1.75105H80.9239V0.685232H87.7538V1.75105H84.8307V10.502H83.7346Z" fill="white"/>
<path d="M70.552 10.502L74.3182 0.685232H75.569L79.3071 10.502H78.1126L75.7095 4.13511C75.6439 3.95748 75.569 3.75179 75.4847 3.51806C75.4097 3.27498 75.3254 3.02722 75.2317 2.77479C75.1474 2.51301 75.0631 2.26058 74.9787 2.0175C74.9038 1.77442 74.8335 1.55939 74.7679 1.3724H75.049C74.9741 1.60614 74.8944 1.84454 74.8101 2.08762C74.7352 2.32135 74.6555 2.55976 74.5712 2.80284C74.4869 3.03657 74.4026 3.27031 74.3182 3.50404C74.2339 3.73777 74.1496 3.9715 74.0653 4.20523L71.6762 10.502H70.552ZM72.154 7.79535L72.5616 6.72954H77.2132L77.6629 7.79535H72.154Z" fill="white"/>
<path d="M59.0408 10.502V0.685232H60.0386L66.475 9.18372L66.2782 9.43615C66.2501 9.28656 66.2267 9.06218 66.2079 8.763C66.1986 8.46383 66.1845 8.12725 66.1658 7.75328C66.1564 7.36996 66.147 6.97262 66.1377 6.56125C66.1283 6.14988 66.1189 5.74786 66.1096 5.35519C66.1096 4.96252 66.1096 4.60725 66.1096 4.28938V0.685232H67.2057V10.502H66.1798L59.7716 2.11567L59.9402 1.82117C59.9683 2.19514 59.9917 2.56444 60.0105 2.92906C60.0386 3.29368 60.0573 3.64428 60.0667 3.98085C60.0854 4.31742 60.0995 4.62595 60.1089 4.90643C60.1182 5.18691 60.1229 5.42531 60.1229 5.62165C60.1323 5.81798 60.137 5.95822 60.137 6.04236V10.502H59.0408Z" fill="white"/>
<path d="M46.1373 10.502V1.75105H43.3267V0.685232H50.1566V1.75105H47.2335V10.502H46.1373Z" fill="white"/>
<path d="M37.3851 10.6422C36.6825 10.6422 36.036 10.5207 35.4458 10.2776C34.8556 10.0252 34.345 9.67455 33.914 9.22579C33.483 8.76768 33.1458 8.23009 32.9022 7.61304C32.6679 6.99599 32.5508 6.32284 32.5508 5.5936C32.5508 4.8737 32.6679 4.21458 32.9022 3.61623C33.1458 3.00853 33.4877 2.48029 33.9281 2.03153C34.3684 1.57341 34.879 1.22281 35.4599 0.979734C36.0407 0.736653 36.6778 0.615112 37.3711 0.615112C37.8302 0.615112 38.2845 0.689907 38.7342 0.839496C39.1839 0.979734 39.5962 1.17607 39.9709 1.4285C40.355 1.68093 40.6689 1.97076 40.9125 2.29798L40.1536 3.08332C39.9194 2.80284 39.6477 2.55976 39.3385 2.35408C39.0387 2.14839 38.7202 1.98945 38.3829 1.87726C38.0456 1.76507 37.7084 1.70898 37.3711 1.70898C36.8464 1.70898 36.3546 1.80714 35.8955 2.00348C35.4458 2.19046 35.057 2.45692 34.7291 2.80284C34.4012 3.14876 34.1435 3.56013 33.9562 4.03695C33.7781 4.51376 33.6891 5.03264 33.6891 5.5936C33.6891 6.17325 33.7781 6.70616 33.9562 7.19232C34.1435 7.67849 34.4059 8.0992 34.7431 8.45448C35.0898 8.8004 35.4926 9.07153 35.9517 9.26786C36.4202 9.45485 36.9401 9.54834 37.5116 9.54834C37.8489 9.54834 38.1862 9.50159 38.5234 9.4081C38.8607 9.30526 39.1699 9.16502 39.451 8.98738C39.732 8.80975 39.9709 8.60874 40.1677 8.38436L40.7298 9.29591C40.5143 9.55769 40.2239 9.79142 39.8585 9.99711C39.5025 10.1934 39.109 10.3524 38.678 10.4739C38.2471 10.5861 37.8161 10.6422 37.3851 10.6422Z" fill="white"/>
<path d="M21.4865 10.502L25.2527 0.685232H26.5035L30.2416 10.502H29.0471L26.644 4.13511C26.5784 3.95748 26.5035 3.75179 26.4191 3.51806C26.3442 3.27498 26.2599 3.02722 26.1662 2.77479C26.0819 2.51301 25.9975 2.26058 25.9132 2.0175C25.8383 1.77442 25.768 1.55939 25.7024 1.3724H25.9835C25.9085 1.60614 25.8289 1.84454 25.7446 2.08762C25.6696 2.32135 25.59 2.55976 25.5057 2.80284C25.4214 3.03657 25.337 3.27031 25.2527 3.50404C25.1684 3.73777 25.0841 3.9715 24.9998 4.20523L22.6107 10.502H21.4865ZM23.0885 7.79535L23.4961 6.72954H28.1477L28.5974 7.79535H23.0885Z" fill="white"/>
<path d="M12.6241 10.502V0.685232H18.5827V1.75105H13.7203V9.43615H18.5546V10.502H12.6241ZM13.1301 5.98627V4.92045H17.7957V5.98627H13.1301Z" fill="white"/>
<path d="M1.80102 10.502V0.685232H5.6516C6.2231 0.685232 6.73838 0.820797 7.19745 1.09193C7.66589 1.35371 8.03596 1.71365 8.30766 2.17177C8.57935 2.62988 8.7152 3.14877 8.7152 3.72842C8.7152 4.27068 8.58404 4.76151 8.32171 5.20093C8.05938 5.64035 7.70337 5.99094 7.25367 6.25272C6.80396 6.50515 6.29805 6.63137 5.73592 6.63137H2.89717V10.502H1.80102ZM7.80174 10.502L5.32838 6.1826L6.38237 5.81798L9.10869 10.502H7.80174ZM2.89717 5.56555H5.83429C6.18094 5.56555 6.48542 5.48608 6.74775 5.32715C7.01008 5.16821 7.21619 4.95317 7.36609 4.68205C7.51599 4.40157 7.59094 4.08369 7.59094 3.72842C7.59094 3.3451 7.50194 3.00385 7.32393 2.70467C7.14592 2.4055 6.89765 2.17177 6.57911 2.00348C6.26994 1.83519 5.91393 1.75105 5.51107 1.75105H2.89717V5.56555Z" fill="white"/>
<path d="M0.333984 30.1036L5.73074 16.494H8.53627L13.8941 30.1036H10.543L7.97127 23.2016C7.86736 22.9294 7.76345 22.6377 7.65954 22.3267C7.55563 22.0156 7.45172 21.698 7.34781 21.374C7.2439 21.037 7.14 20.713 7.03609 20.4019C6.94517 20.0778 6.86724 19.7797 6.80229 19.5075L7.38678 19.4881C7.30885 19.8121 7.21793 20.1297 7.11402 20.4408C7.0231 20.7518 6.92568 21.0629 6.82178 21.374C6.73086 21.6721 6.62695 21.9767 6.51005 22.2878C6.39315 22.5859 6.28275 22.897 6.17884 23.221L3.6071 30.1036H0.333984ZM2.90572 27.4983L3.93831 25.0097H10.2118L11.2249 27.4983H2.90572Z" fill="white"/>
<path d="M18.4057 30.3174C17.6394 30.3174 16.9835 30.1554 16.4379 29.8314C15.9054 29.4944 15.4898 29.0148 15.191 28.3926C14.9053 27.7705 14.7624 27.0252 14.7624 26.1568V19.7797H17.8991V25.7291C17.8991 26.1438 17.9641 26.5003 18.094 26.7984C18.2239 27.0965 18.4187 27.3298 18.6785 27.4983C18.9382 27.6538 19.25 27.7316 19.6136 27.7316C19.8864 27.7316 20.1332 27.6862 20.354 27.5955C20.5878 27.5048 20.7826 27.3816 20.9385 27.2261C21.1073 27.0576 21.2372 26.8697 21.3281 26.6623C21.4191 26.4419 21.4645 26.2021 21.4645 25.9429V19.7797H24.6013V30.1036H21.6593L21.523 27.9844L22.1074 27.751C21.9516 28.2436 21.6918 28.6843 21.3281 29.0731C20.9645 29.449 20.5293 29.7536 20.0228 29.9869C19.5162 30.2072 18.9772 30.3174 18.4057 30.3174Z" fill="white"/>
<path d="M31.1008 30.3174C30.2046 30.3174 29.4058 30.0906 28.7044 29.6369C28.016 29.1703 27.4705 28.5352 27.0678 27.7316C26.6652 26.915 26.4638 25.9883 26.4638 24.9514C26.4638 23.9144 26.6652 22.9942 27.0678 22.1906C27.4705 21.374 28.0225 20.7324 28.7239 20.2658C29.4252 19.7992 30.2305 19.5659 31.1397 19.5659C31.6073 19.5659 32.0554 19.6372 32.484 19.7797C32.9127 19.9223 33.3023 20.1167 33.653 20.363C34.0037 20.6093 34.2895 20.8944 34.5103 21.2185C34.7311 21.5295 34.861 21.8536 34.8999 22.1906L34.1596 22.3655V15.7163H37.2963V30.1036H34.3934L34.218 27.751L34.8415 27.8483C34.8025 28.1723 34.6726 28.4834 34.4518 28.7815C34.244 29.0796 33.9712 29.3453 33.6335 29.5786C33.2958 29.799 32.9062 29.9739 32.4646 30.1036C32.0359 30.2461 31.5813 30.3174 31.1008 30.3174ZM31.8996 27.7316C32.3801 27.7316 32.7958 27.615 33.1465 27.3816C33.4972 27.1483 33.7634 26.8243 33.9453 26.4095C34.1401 25.9948 34.2375 25.5087 34.2375 24.9514C34.2375 24.3811 34.1401 23.8885 33.9453 23.4738C33.7634 23.059 33.4972 22.7349 33.1465 22.5016C32.7958 22.2683 32.3801 22.1517 31.8996 22.1517C31.419 22.1517 31.0033 22.2683 30.6527 22.5016C30.315 22.7349 30.0487 23.059 29.8539 23.4738C29.659 23.8885 29.5616 24.3811 29.5616 24.9514C29.5616 25.5087 29.659 25.9948 29.8539 26.4095C30.0487 26.8243 30.315 27.1483 30.6527 27.3816C31.0033 27.615 31.419 27.7316 31.8996 27.7316Z" fill="white"/>
<path d="M39.9128 30.1036V19.7797H43.0301V30.1036H39.9128ZM41.4714 17.7383C40.8869 17.7383 40.4258 17.6022 40.0881 17.33C39.7634 17.0449 39.6011 16.6431 39.6011 16.1246C39.6011 15.658 39.7699 15.2756 40.1076 14.9775C40.4453 14.6794 40.8999 14.5303 41.4714 14.5303C42.0559 14.5303 42.5105 14.6729 42.8352 14.9581C43.1599 15.2302 43.3223 15.6191 43.3223 16.1246C43.3223 16.6042 43.1534 16.993 42.8157 17.2911C42.491 17.5892 42.0429 17.7383 41.4714 17.7383Z" fill="white"/>
<path d="M50.6349 30.298C49.5569 30.298 48.5957 30.0647 47.7515 29.5981C46.9202 29.1314 46.2578 28.4963 45.7642 27.6927C45.2836 26.8891 45.0433 25.9688 45.0433 24.9319C45.0433 23.895 45.2836 22.9747 45.7642 22.1711C46.2578 21.3675 46.9202 20.7324 47.7515 20.2658C48.5957 19.7992 49.5569 19.5659 50.6349 19.5659C51.713 19.5659 52.6676 19.7992 53.4989 20.2658C54.3432 20.7324 55.0056 21.3675 55.4861 22.1711C55.9667 22.9747 56.207 23.895 56.207 24.9319C56.207 25.9688 55.9667 26.8891 55.4861 27.6927C55.0056 28.4963 54.3432 29.1314 53.4989 29.5981C52.6676 30.0647 51.713 30.298 50.6349 30.298ZM50.6349 27.615C51.1025 27.615 51.5181 27.4983 51.8818 27.265C52.2455 27.0317 52.5312 26.7141 52.7391 26.3123C52.9469 25.9105 53.0443 25.4504 53.0313 24.9319C53.0443 24.4135 52.9469 23.9533 52.7391 23.5515C52.5312 23.1368 52.2455 22.8127 51.8818 22.5794C51.5181 22.3461 51.1025 22.2295 50.6349 22.2295C50.1673 22.2295 49.7452 22.3461 49.3685 22.5794C49.0049 22.8127 48.7191 23.1368 48.5113 23.5515C48.3035 23.9533 48.2061 24.4135 48.219 24.9319C48.2061 25.4504 48.3035 25.9105 48.5113 26.3123C48.7191 26.7141 49.0049 27.0317 49.3685 27.265C49.7452 27.4983 50.1673 27.615 50.6349 27.615Z" fill="white"/>
<path d="M56.6478 30.1036L62.0446 16.494H64.8501L70.2079 30.1036H66.8568L64.2851 23.2016C64.1812 22.9294 64.0773 22.6377 63.9734 22.3267C63.8695 22.0156 63.7656 21.698 63.6616 21.374C63.5577 21.037 63.4538 20.713 63.3499 20.4019C63.259 20.0778 63.1811 19.7797 63.1161 19.5075L63.7006 19.4881C63.6227 19.8121 63.5318 20.1297 63.4278 20.4408C63.3369 20.7518 63.2395 21.0629 63.1356 21.374C63.0447 21.6721 62.9408 21.9767 62.8239 22.2878C62.707 22.5859 62.5966 22.897 62.4927 23.221L59.9209 30.1036H56.6478ZM59.2196 27.4983L60.2521 25.0097H66.5256L67.5387 27.4983H59.2196Z" fill="white"/>
<path d="M71.7146 30.1036V16.494H77.5984C78.4557 16.494 79.2155 16.6884 79.8779 17.0773C80.5533 17.4661 81.0859 17.9975 81.4755 18.6715C81.8782 19.3455 82.0795 20.1038 82.0795 20.9463C82.0795 21.8276 81.8782 22.6183 81.4755 23.3182C81.0859 24.0052 80.5533 24.5496 79.8779 24.9514C79.2155 25.3532 78.4557 25.5541 77.5984 25.5541H75.0267V30.1036H71.7146ZM74.9682 22.6572H77.1308C77.4166 22.6572 77.6764 22.5859 77.9102 22.4433C78.1439 22.3007 78.3323 22.1063 78.4752 21.8601C78.618 21.6138 78.6895 21.3286 78.6895 21.0046C78.6895 20.6676 78.618 20.3824 78.4752 20.1491C78.3323 19.9158 78.1439 19.7344 77.9102 19.6047C77.6764 19.4751 77.4166 19.4103 77.1308 19.4103H74.9682V22.6572Z" fill="white"/>
<path d="M84.1468 30.1036V27.3233H86.4458V19.2742H84.1468V16.494H92.0763V19.2742H89.7579V27.3233H92.0763V30.1036H84.1468Z" fill="white"/>
</svg>
