<svg viewBox="0 0 555 495" fill="none" xmlns="http://www.w3.org/2000/svg">
<g clip-path="url(#clip0_88_429)">
<path d="M220.22 300.25C220.33 300.31 220.45 300.34 220.57 300.34C220.69 300.34 220.82 300.31 220.93 300.24C221.15 300.11 221.28 299.88 221.28 299.63V273.87C221.28 273.62 221.14 273.38 220.92 273.25L173.16 246.13C172.94 246.01 172.67 246.01 172.45 246.13C172.23 246.26 172.1 246.49 172.1 246.74V272.42C172.1 272.67 172.24 272.91 172.46 273.04L220.22 300.24V300.25ZM173.52 247.98L219.86 274.29V298.42L173.52 272.03V247.98Z" fill="currentColor"/>
<path d="M226.76 364.52C226.94 364.52 227.13 364.45 227.26 364.31C227.49 364.08 227.53 363.73 227.36 363.45L209.28 333.17C209.22 333.07 209.13 332.98 209.03 332.92L149.4 298.49C149.12 298.33 148.77 298.38 148.54 298.6C148.31 298.83 148.27 299.18 148.43 299.46L166 329.45C166.06 329.56 166.15 329.64 166.26 329.7L226.4 364.42C226.51 364.48 226.63 364.52 226.75 364.52H226.76ZM208.16 334.05L215.97 347.13L158.48 313.8L151.01 301.05L208.16 334.05ZM167.13 328.57L159.93 316.29L217.47 349.65L224.75 361.84L167.13 328.57Z" fill="currentColor"/>
<path d="M361.1 282.18C361.1 282.18 361.09 282.18 361.08 282.18L347.92 289.81C347.83 289.85 347.74 289.89 347.66 289.93C342.11 293.07 341.48 302.51 346.27 310.99C350 317.6 355.94 321.69 361 321.69C362.43 321.69 363.8 321.36 365.02 320.67C365.12 320.61 365.22 320.53 365.32 320.47C365.35 320.46 365.38 320.47 365.41 320.45L378.09 313.1C378.21 313.05 378.33 312.99 378.43 312.93C378.53 312.87 378.63 312.79 378.73 312.73L378.84 312.67C378.84 312.67 378.87 312.64 378.88 312.63C381.35 311.01 382.82 308.07 383.04 304.26C383.26 300.33 382.12 295.93 379.83 291.87C375.06 283.43 366.68 279.08 361.12 282.17L361.1 282.18ZM347.5 310.31C343.12 302.55 343.48 294.01 348.3 291.22C348.32 291.21 348.35 291.22 348.38 291.2L348.65 291.05C349.59 290.58 350.62 290.33 351.74 290.33C353.32 290.33 355.05 290.8 356.81 291.74C360.05 293.46 363.03 296.51 365.19 300.33C369.59 308.13 369.21 316.71 364.34 319.46C359.46 322.21 351.92 318.11 347.52 310.31H347.5ZM381.61 304.19C381.42 307.58 380.14 310.16 378.01 311.52L368.31 317.14C370.53 312.76 369.97 305.92 366.41 299.62C364.12 295.56 360.94 292.31 357.46 290.47C355.69 289.53 353.94 289.01 352.29 288.92L361.69 283.47C361.69 283.47 361.69 283.47 361.7 283.47L361.79 283.42C366.66 280.7 374.19 284.81 378.58 292.58C380.74 296.4 381.82 300.53 381.61 304.19Z" fill="currentColor"/>
<path d="M361.1 404.35C361.1 404.35 361.1 404.35 361.09 404.35L347.93 411.98C347.84 412.02 347.75 412.06 347.67 412.1C344.93 413.65 343.29 416.73 343.07 420.78C342.85 424.71 343.99 429.11 346.28 433.16C350.01 439.77 355.95 443.86 361.01 443.86C362.44 443.86 363.81 443.53 365.03 442.84C365.14 442.78 365.23 442.7 365.33 442.64C365.36 442.63 365.39 442.64 365.42 442.62L378.12 435.26C378.23 435.21 378.34 435.16 378.44 435.1C378.54 435.04 378.64 434.97 378.74 434.9L378.85 434.84C378.85 434.84 378.88 434.81 378.89 434.8C381.36 433.18 382.83 430.24 383.05 426.42C383.27 422.49 382.13 418.09 379.84 414.04C375.07 405.59 366.68 401.24 361.12 404.34L361.1 404.35ZM347.5 432.47C345.34 428.65 344.26 424.52 344.47 420.86C344.67 417.34 346.03 414.69 348.3 413.38C348.33 413.37 348.35 413.38 348.38 413.36L348.65 413.2C349.59 412.73 350.62 412.48 351.74 412.48C353.32 412.48 355.05 412.95 356.81 413.89C360.05 415.61 363.03 418.66 365.19 422.48C367.35 426.3 368.43 430.43 368.22 434.09C368.02 437.64 366.64 440.31 364.33 441.61C359.46 444.36 351.91 440.26 347.51 432.46L347.5 432.47ZM381.61 426.36C381.42 429.75 380.14 432.32 378.01 433.69L377.35 434.07L368.34 439.29C369.07 437.85 369.52 436.13 369.63 434.18C369.85 430.25 368.71 425.85 366.42 421.8C364.13 417.74 360.95 414.49 357.47 412.65C355.7 411.71 353.95 411.19 352.3 411.1L361.7 405.65L361.79 405.6C366.66 402.88 374.19 406.99 378.58 414.76C380.74 418.58 381.82 422.71 381.61 426.37V426.36Z" fill="currentColor"/>
<path d="M346.69 334.74L381.06 354.5C381.17 354.56 381.29 354.59 381.41 354.59C381.66 354.59 381.89 354.46 382.03 354.23C382.23 353.89 382.11 353.46 381.77 353.26L347.4 333.5C347.06 333.3 346.63 333.42 346.43 333.76C346.23 334.1 346.35 334.53 346.69 334.73V334.74Z" fill="currentColor"/>
<path d="M346.69 344.65L381.06 364.41C381.17 364.47 381.29 364.5 381.41 364.5C381.66 364.5 381.89 364.37 382.03 364.14C382.23 363.8 382.11 363.37 381.77 363.17L347.4 343.41C347.06 343.21 346.63 343.33 346.43 343.67C346.23 344.01 346.35 344.44 346.69 344.64V344.65Z" fill="currentColor"/>
<path d="M346.69 364.47L381.06 384.23C381.17 384.29 381.29 384.32 381.41 384.32C381.66 384.32 381.89 384.19 382.03 383.96C382.23 383.62 382.11 383.19 381.77 382.99L347.4 363.23C347.06 363.03 346.63 363.15 346.43 363.49C346.23 363.83 346.35 364.26 346.69 364.46V364.47Z" fill="currentColor"/>
<path d="M346.69 354.56L381.06 374.32C381.17 374.38 381.29 374.41 381.41 374.41C381.66 374.41 381.89 374.28 382.03 374.05C382.23 373.71 382.11 373.28 381.77 373.08L347.4 353.32C347.06 353.12 346.63 353.24 346.43 353.58C346.23 353.92 346.35 354.35 346.69 354.55V354.56Z" fill="currentColor"/>
<path d="M346.69 374.38L381.06 394.14C381.17 394.2 381.29 394.23 381.41 394.23C381.66 394.23 381.89 394.1 382.03 393.87C382.23 393.53 382.11 393.1 381.77 392.9L347.4 373.14C347.06 372.94 346.63 373.06 346.43 373.4C346.23 373.74 346.35 374.17 346.69 374.37V374.38Z" fill="currentColor"/>
<path d="M207.64 272.59L187.42 260.98C187.37 260.94 187.31 260.91 187.25 260.89L187.12 260.81C187.01 260.74 186.91 260.66 186.8 260.6C185.46 259.89 184.13 259.82 183.06 260.42C181.99 261.01 181.34 262.17 181.23 263.69C181.13 265.09 181.51 266.65 182.31 268.09C182.99 269.32 183.91 270.32 184.94 271C184.97 271.03 184.99 271.06 185.02 271.08C185.17 271.18 185.32 271.26 185.44 271.32C185.45 271.32 185.46 271.34 185.47 271.34C185.48 271.34 185.5 271.35 185.51 271.36L206.01 283.19C206.01 283.19 206.04 283.21 206.05 283.22C206.06 283.22 206.07 283.23 206.08 283.24L206.43 283.44C206.43 283.44 206.46 283.46 206.48 283.47C206.49 283.47 206.5 283.48 206.52 283.49L206.61 283.54C206.61 283.54 206.64 283.54 206.66 283.55C207.34 283.88 208.01 284.06 208.65 284.06C209.22 284.06 209.76 283.93 210.24 283.66C211.32 283.06 211.97 281.9 212.08 280.38C212.18 278.97 211.8 277.4 211 275.96C210.13 274.38 208.91 273.21 207.65 272.6L207.64 272.59ZM203.17 279.92L188.86 271.66C188.97 271.61 189.09 271.58 189.2 271.52C190.27 270.93 190.92 269.77 191.03 268.25C191.12 266.94 190.78 265.5 190.09 264.15L204.38 272.35C204.27 272.39 204.16 272.44 204.06 272.5C202.98 273.1 202.33 274.26 202.22 275.78C202.13 277.1 202.47 278.55 203.17 279.91V279.92ZM183.55 267.41C182.89 266.21 182.57 264.93 182.65 263.8C182.72 262.78 183.11 262.03 183.75 261.67C184.02 261.52 184.32 261.45 184.66 261.45C185.08 261.45 185.53 261.58 186.01 261.81L186.46 262.07C187.34 262.62 188.14 263.48 188.73 264.55C189.39 265.75 189.71 267.03 189.63 268.16C189.56 269.18 189.17 269.93 188.53 270.29C187.89 270.64 187.05 270.57 186.16 270.1H186.15C186.15 270.1 186.12 270.07 186.11 270.07C185.12 269.53 184.22 268.59 183.57 267.41H183.55ZM209.54 282.42C208.91 282.77 208.07 282.7 207.17 282.24L207.07 282.18C206.09 281.64 205.19 280.7 204.54 279.52C203.87 278.31 203.55 277.02 203.63 275.89C203.7 274.86 204.1 274.1 204.74 273.75C205.01 273.6 205.32 273.53 205.65 273.53C206.14 273.53 206.68 273.7 207.21 273.99C207.25 274.01 207.28 274.03 207.32 274.05C208.22 274.58 209.1 275.49 209.74 276.64C210.41 277.85 210.73 279.14 210.65 280.27C210.58 281.3 210.18 282.06 209.54 282.41V282.42Z" fill="currentColor"/>
<path d="M264.25 393.66C265.65 393.66 266.79 392.52 266.79 391.12C266.79 389.72 265.65 388.58 264.25 388.58C262.85 388.58 261.71 389.72 261.71 391.12C261.71 392.52 262.85 393.66 264.25 393.66ZM264.25 390C264.87 390 265.37 390.5 265.37 391.12C265.37 391.74 264.87 392.24 264.25 392.24C263.63 392.24 263.13 391.74 263.13 391.12C263.13 390.5 263.63 390 264.25 390Z" fill="currentColor"/>
<path d="M264.25 375.48C265.65 375.48 266.79 374.34 266.79 372.94C266.79 371.54 265.65 370.4 264.25 370.4C262.85 370.4 261.71 371.54 261.71 372.94C261.71 374.34 262.85 375.48 264.25 375.48ZM264.25 371.81C264.87 371.81 265.37 372.31 265.37 372.93C265.37 373.55 264.87 374.05 264.25 374.05C263.63 374.05 263.13 373.55 263.13 372.93C263.13 372.31 263.63 371.81 264.25 371.81Z" fill="currentColor"/>
<path d="M264.25 357.29C265.65 357.29 266.79 356.15 266.79 354.75C266.79 353.35 265.65 352.21 264.25 352.21C262.85 352.21 261.71 353.35 261.71 354.75C261.71 356.15 262.85 357.29 264.25 357.29ZM264.25 353.63C264.87 353.63 265.37 354.13 265.37 354.75C265.37 355.37 264.87 355.87 264.25 355.87C263.63 355.87 263.13 355.37 263.13 354.75C263.13 354.13 263.63 353.63 264.25 353.63Z" fill="currentColor"/>
<path d="M264.25 339.1C265.65 339.1 266.79 337.96 266.79 336.56C266.79 335.16 265.65 334.02 264.25 334.02C262.85 334.02 261.71 335.16 261.71 336.56C261.71 337.96 262.85 339.1 264.25 339.1ZM264.25 335.44C264.87 335.44 265.37 335.94 265.37 336.56C265.37 337.18 264.87 337.68 264.25 337.68C263.63 337.68 263.13 337.18 263.13 336.56C263.13 335.94 263.63 335.44 264.25 335.44Z" fill="currentColor"/>
<path d="M264.25 320.91C265.65 320.91 266.79 319.77 266.79 318.37C266.79 316.97 265.65 315.83 264.25 315.83C262.85 315.83 261.71 316.97 261.71 318.37C261.71 319.77 262.85 320.91 264.25 320.91ZM264.25 317.25C264.87 317.25 265.37 317.75 265.37 318.37C265.37 318.99 264.87 319.49 264.25 319.49C263.63 319.49 263.13 318.99 263.13 318.37C263.13 317.75 263.63 317.25 264.25 317.25Z" fill="currentColor"/>
<path d="M264.25 302.72C265.65 302.72 266.79 301.58 266.79 300.18C266.79 298.78 265.65 297.64 264.25 297.64C262.85 297.64 261.71 298.78 261.71 300.18C261.71 301.58 262.85 302.72 264.25 302.72ZM264.25 299.06C264.87 299.06 265.37 299.56 265.37 300.18C265.37 300.8 264.87 301.3 264.25 301.3C263.63 301.3 263.13 300.8 263.13 300.18C263.13 299.56 263.63 299.06 264.25 299.06Z" fill="currentColor"/>
<path d="M264.25 284.53C265.65 284.53 266.79 283.39 266.79 281.99C266.79 280.59 265.65 279.45 264.25 279.45C262.85 279.45 261.71 280.59 261.71 281.99C261.71 283.39 262.85 284.53 264.25 284.53ZM264.25 280.87C264.87 280.87 265.37 281.37 265.37 281.99C265.37 282.61 264.87 283.11 264.25 283.11C263.63 283.11 263.13 282.61 263.13 281.99C263.13 281.37 263.63 280.87 264.25 280.87Z" fill="currentColor"/>
<path d="M279.85 402.22C281.25 402.22 282.39 401.08 282.39 399.68C282.39 398.28 281.25 397.14 279.85 397.14C278.45 397.14 277.31 398.28 277.31 399.68C277.31 401.08 278.45 402.22 279.85 402.22ZM279.85 398.56C280.47 398.56 280.97 399.06 280.97 399.68C280.97 400.3 280.47 400.8 279.85 400.8C279.23 400.8 278.73 400.3 278.73 399.68C278.73 399.06 279.23 398.56 279.85 398.56Z" fill="currentColor"/>
<path d="M279.85 384.03C281.25 384.03 282.39 382.89 282.39 381.49C282.39 380.09 281.25 378.95 279.85 378.95C278.45 378.95 277.31 380.09 277.31 381.49C277.31 382.89 278.45 384.03 279.85 384.03ZM279.85 380.37C280.47 380.37 280.97 380.87 280.97 381.49C280.97 382.11 280.47 382.61 279.85 382.61C279.23 382.61 278.73 382.11 278.73 381.49C278.73 380.87 279.23 380.37 279.85 380.37Z" fill="currentColor"/>
<path d="M279.85 365.84C281.25 365.84 282.39 364.7 282.39 363.3C282.39 361.9 281.25 360.76 279.85 360.76C278.45 360.76 277.31 361.9 277.31 363.3C277.31 364.7 278.45 365.84 279.85 365.84ZM279.85 362.18C280.47 362.18 280.97 362.68 280.97 363.3C280.97 363.92 280.47 364.42 279.85 364.42C279.23 364.42 278.73 363.92 278.73 363.3C278.73 362.68 279.23 362.18 279.85 362.18Z" fill="currentColor"/>
<path d="M279.85 347.65C281.25 347.65 282.39 346.51 282.39 345.11C282.39 343.71 281.25 342.57 279.85 342.57C278.45 342.57 277.31 343.71 277.31 345.11C277.31 346.51 278.45 347.65 279.85 347.65ZM279.85 343.99C280.47 343.99 280.97 344.49 280.97 345.11C280.97 345.73 280.47 346.23 279.85 346.23C279.23 346.23 278.73 345.73 278.73 345.11C278.73 344.49 279.23 343.99 279.85 343.99Z" fill="currentColor"/>
<path d="M279.85 329.47C281.25 329.47 282.39 328.33 282.39 326.93C282.39 325.53 281.25 324.39 279.85 324.39C278.45 324.39 277.31 325.53 277.31 326.93C277.31 328.33 278.45 329.47 279.85 329.47ZM279.85 325.8C280.47 325.8 280.97 326.3 280.97 326.92C280.97 327.54 280.47 328.04 279.85 328.04C279.23 328.04 278.73 327.54 278.73 326.92C278.73 326.3 279.23 325.8 279.85 325.8Z" fill="currentColor"/>
<path d="M279.85 311.28C281.25 311.28 282.39 310.14 282.39 308.74C282.39 307.34 281.25 306.2 279.85 306.2C278.45 306.2 277.31 307.34 277.31 308.74C277.31 310.14 278.45 311.28 279.85 311.28ZM279.85 307.62C280.47 307.62 280.97 308.12 280.97 308.74C280.97 309.36 280.47 309.86 279.85 309.86C279.23 309.86 278.73 309.36 278.73 308.74C278.73 308.12 279.23 307.62 279.85 307.62Z" fill="currentColor"/>
<path d="M279.85 293.09C281.25 293.09 282.39 291.95 282.39 290.55C282.39 289.15 281.25 288.01 279.85 288.01C278.45 288.01 277.31 289.15 277.31 290.55C277.31 291.95 278.45 293.09 279.85 293.09ZM279.85 289.43C280.47 289.43 280.97 289.93 280.97 290.55C280.97 291.17 280.47 291.67 279.85 291.67C279.23 291.67 278.73 291.17 278.73 290.55C278.73 289.93 279.23 289.43 279.85 289.43Z" fill="currentColor"/>
<path d="M295.45 412.97C296.85 412.97 297.99 411.83 297.99 410.43C297.99 409.03 296.85 407.89 295.45 407.89C294.05 407.89 292.91 409.03 292.91 410.43C292.91 411.83 294.05 412.97 295.45 412.97ZM295.45 409.31C296.07 409.31 296.57 409.81 296.57 410.43C296.57 411.05 296.07 411.55 295.45 411.55C294.83 411.55 294.33 411.05 294.33 410.43C294.33 409.81 294.83 409.31 295.45 409.31Z" fill="currentColor"/>
<path d="M295.45 394.79C296.85 394.79 297.99 393.65 297.99 392.25C297.99 390.85 296.85 389.71 295.45 389.71C294.05 389.71 292.91 390.85 292.91 392.25C292.91 393.65 294.05 394.79 295.45 394.79ZM295.45 391.12C296.07 391.12 296.57 391.62 296.57 392.24C296.57 392.86 296.07 393.36 295.45 393.36C294.83 393.36 294.33 392.86 294.33 392.24C294.33 391.62 294.83 391.12 295.45 391.12Z" fill="currentColor"/>
<path d="M295.45 376.6C296.85 376.6 297.99 375.46 297.99 374.06C297.99 372.66 296.85 371.52 295.45 371.52C294.05 371.52 292.91 372.66 292.91 374.06C292.91 375.46 294.05 376.6 295.45 376.6ZM295.45 372.94C296.07 372.94 296.57 373.44 296.57 374.06C296.57 374.68 296.07 375.18 295.45 375.18C294.83 375.18 294.33 374.68 294.33 374.06C294.33 373.44 294.83 372.94 295.45 372.94Z" fill="currentColor"/>
<path d="M295.45 358.41C296.85 358.41 297.99 357.27 297.99 355.87C297.99 354.47 296.85 353.33 295.45 353.33C294.05 353.33 292.91 354.47 292.91 355.87C292.91 357.27 294.05 358.41 295.45 358.41ZM295.45 354.75C296.07 354.75 296.57 355.25 296.57 355.87C296.57 356.49 296.07 356.99 295.45 356.99C294.83 356.99 294.33 356.49 294.33 355.87C294.33 355.25 294.83 354.75 295.45 354.75Z" fill="currentColor"/>
<path d="M295.45 340.22C296.85 340.22 297.99 339.08 297.99 337.68C297.99 336.28 296.85 335.14 295.45 335.14C294.05 335.14 292.91 336.28 292.91 337.68C292.91 339.08 294.05 340.22 295.45 340.22ZM295.45 336.56C296.07 336.56 296.57 337.06 296.57 337.68C296.57 338.3 296.07 338.8 295.45 338.8C294.83 338.8 294.33 338.3 294.33 337.68C294.33 337.06 294.83 336.56 295.45 336.56Z" fill="currentColor"/>
<path d="M295.45 322.03C296.85 322.03 297.99 320.89 297.99 319.49C297.99 318.09 296.85 316.95 295.45 316.95C294.05 316.95 292.91 318.09 292.91 319.49C292.91 320.89 294.05 322.03 295.45 322.03ZM295.45 318.37C296.07 318.37 296.57 318.87 296.57 319.49C296.57 320.11 296.07 320.61 295.45 320.61C294.83 320.61 294.33 320.11 294.33 319.49C294.33 318.87 294.83 318.37 295.45 318.37Z" fill="currentColor"/>
<path d="M295.45 303.84C296.85 303.84 297.99 302.7 297.99 301.3C297.99 299.9 296.85 298.76 295.45 298.76C294.05 298.76 292.91 299.9 292.91 301.3C292.91 302.7 294.05 303.84 295.45 303.84ZM295.45 300.18C296.07 300.18 296.57 300.68 296.57 301.3C296.57 301.92 296.07 302.42 295.45 302.42C294.83 302.42 294.33 301.92 294.33 301.3C294.33 300.68 294.83 300.18 295.45 300.18Z" fill="currentColor"/>
<path d="M311.05 421.87C312.45 421.87 313.59 420.73 313.59 419.33C313.59 417.93 312.45 416.79 311.05 416.79C309.65 416.79 308.51 417.93 308.51 419.33C308.51 420.73 309.65 421.87 311.05 421.87ZM311.05 418.21C311.67 418.21 312.17 418.71 312.17 419.33C312.17 419.95 311.67 420.45 311.05 420.45C310.43 420.45 309.93 419.95 309.93 419.33C309.93 418.71 310.43 418.21 311.05 418.21Z" fill="currentColor"/>
<path d="M311.05 403.68C312.45 403.68 313.59 402.54 313.59 401.14C313.59 399.74 312.45 398.6 311.05 398.6C309.65 398.6 308.51 399.74 308.51 401.14C308.51 402.54 309.65 403.68 311.05 403.68ZM311.05 400.02C311.67 400.02 312.17 400.52 312.17 401.14C312.17 401.76 311.67 402.26 311.05 402.26C310.43 402.26 309.93 401.76 309.93 401.14C309.93 400.52 310.43 400.02 311.05 400.02Z" fill="currentColor"/>
<path d="M311.05 385.5C312.45 385.5 313.59 384.36 313.59 382.96C313.59 381.56 312.45 380.42 311.05 380.42C309.65 380.42 308.51 381.56 308.51 382.96C308.51 384.36 309.65 385.5 311.05 385.5ZM311.05 381.83C311.67 381.83 312.17 382.33 312.17 382.95C312.17 383.57 311.67 384.07 311.05 384.07C310.43 384.07 309.93 383.57 309.93 382.95C309.93 382.33 310.43 381.83 311.05 381.83Z" fill="currentColor"/>
<path d="M311.05 367.31C312.45 367.31 313.59 366.17 313.59 364.77C313.59 363.37 312.45 362.23 311.05 362.23C309.65 362.23 308.51 363.37 308.51 364.77C308.51 366.17 309.65 367.31 311.05 367.31ZM311.05 363.65C311.67 363.65 312.17 364.15 312.17 364.77C312.17 365.39 311.67 365.89 311.05 365.89C310.43 365.89 309.93 365.39 309.93 364.77C309.93 364.15 310.43 363.65 311.05 363.65Z" fill="currentColor"/>
<path d="M311.05 349.12C312.45 349.12 313.59 347.98 313.59 346.58C313.59 345.18 312.45 344.04 311.05 344.04C309.65 344.04 308.51 345.18 308.51 346.58C308.51 347.98 309.65 349.12 311.05 349.12ZM311.05 345.46C311.67 345.46 312.17 345.96 312.17 346.58C312.17 347.2 311.67 347.7 311.05 347.7C310.43 347.7 309.93 347.2 309.93 346.58C309.93 345.96 310.43 345.46 311.05 345.46Z" fill="currentColor"/>
<path d="M311.05 330.93C312.45 330.93 313.59 329.79 313.59 328.39C313.59 326.99 312.45 325.85 311.05 325.85C309.65 325.85 308.51 326.99 308.51 328.39C308.51 329.79 309.65 330.93 311.05 330.93ZM311.05 327.27C311.67 327.27 312.17 327.77 312.17 328.39C312.17 329.01 311.67 329.51 311.05 329.51C310.43 329.51 309.93 329.01 309.93 328.39C309.93 327.77 310.43 327.27 311.05 327.27Z" fill="currentColor"/>
<path d="M311.05 312.74C312.45 312.74 313.59 311.6 313.59 310.2C313.59 308.8 312.45 307.66 311.05 307.66C309.65 307.66 308.51 308.8 308.51 310.2C308.51 311.6 309.65 312.74 311.05 312.74ZM311.05 309.08C311.67 309.08 312.17 309.58 312.17 310.2C312.17 310.82 311.67 311.32 311.05 311.32C310.43 311.32 309.93 310.82 309.93 310.2C309.93 309.58 310.43 309.08 311.05 309.08Z" fill="currentColor"/>
<path d="M326.66 430.59C328.06 430.59 329.2 429.45 329.2 428.05C329.2 426.65 328.06 425.51 326.66 425.51C325.26 425.51 324.12 426.65 324.12 428.05C324.12 429.45 325.26 430.59 326.66 430.59ZM326.66 426.93C327.28 426.93 327.78 427.43 327.78 428.05C327.78 428.67 327.28 429.17 326.66 429.17C326.04 429.17 325.54 428.67 325.54 428.05C325.54 427.43 326.04 426.93 326.66 426.93Z" fill="currentColor"/>
<path d="M326.66 412.4C328.06 412.4 329.2 411.26 329.2 409.86C329.2 408.46 328.06 407.32 326.66 407.32C325.26 407.32 324.12 408.46 324.12 409.86C324.12 411.26 325.26 412.4 326.66 412.4ZM326.66 408.74C327.28 408.74 327.78 409.24 327.78 409.86C327.78 410.48 327.28 410.98 326.66 410.98C326.04 410.98 325.54 410.48 325.54 409.86C325.54 409.24 326.04 408.74 326.66 408.74Z" fill="currentColor"/>
<path d="M326.66 394.21C328.06 394.21 329.2 393.07 329.2 391.67C329.2 390.27 328.06 389.13 326.66 389.13C325.26 389.13 324.12 390.27 324.12 391.67C324.12 393.07 325.26 394.21 326.66 394.21ZM326.66 390.55C327.28 390.55 327.78 391.05 327.78 391.67C327.78 392.29 327.28 392.79 326.66 392.79C326.04 392.79 325.54 392.29 325.54 391.67C325.54 391.05 326.04 390.55 326.66 390.55Z" fill="currentColor"/>
<path d="M326.66 376.02C328.06 376.02 329.2 374.88 329.2 373.48C329.2 372.08 328.06 370.94 326.66 370.94C325.26 370.94 324.12 372.08 324.12 373.48C324.12 374.88 325.26 376.02 326.66 376.02ZM326.66 372.36C327.28 372.36 327.78 372.86 327.78 373.48C327.78 374.1 327.28 374.6 326.66 374.6C326.04 374.6 325.54 374.1 325.54 373.48C325.54 372.86 326.04 372.36 326.66 372.36Z" fill="currentColor"/>
<path d="M326.66 357.83C328.06 357.83 329.2 356.69 329.2 355.29C329.2 353.89 328.06 352.75 326.66 352.75C325.26 352.75 324.12 353.89 324.12 355.29C324.12 356.69 325.26 357.83 326.66 357.83ZM326.66 354.17C327.28 354.17 327.78 354.67 327.78 355.29C327.78 355.91 327.28 356.41 326.66 356.41C326.04 356.41 325.54 355.91 325.54 355.29C325.54 354.67 326.04 354.17 326.66 354.17Z" fill="currentColor"/>
<path d="M326.66 339.65C328.06 339.65 329.2 338.51 329.2 337.11C329.2 335.71 328.06 334.57 326.66 334.57C325.26 334.57 324.12 335.71 324.12 337.11C324.12 338.51 325.26 339.65 326.66 339.65ZM326.66 335.98C327.28 335.98 327.78 336.48 327.78 337.1C327.78 337.72 327.28 338.22 326.66 338.22C326.04 338.22 325.54 337.72 325.54 337.1C325.54 336.48 326.04 335.98 326.66 335.98Z" fill="currentColor"/>
<path d="M326.66 321.46C328.06 321.46 329.2 320.32 329.2 318.92C329.2 317.52 328.06 316.38 326.66 316.38C325.26 316.38 324.12 317.52 324.12 318.92C324.12 320.32 325.26 321.46 326.66 321.46ZM326.66 317.8C327.28 317.8 327.78 318.3 327.78 318.92C327.78 319.54 327.28 320.04 326.66 320.04C326.04 320.04 325.54 319.54 325.54 318.92C325.54 318.3 326.04 317.8 326.66 317.8Z" fill="currentColor"/>
<path d="M554.08 185.25C554.08 185 553.95 184.76 553.73 184.63L304.59 40.76C304.37 40.63 304.1 40.63 303.88 40.76L284.44 51.94L246.19 0.290039C246.08 0.140039 245.91 0.040039 245.73 0.010039C245.54 -0.019961 245.35 0.030039 245.2 0.140039L241.75 2.70004C241.44 2.93004 241.37 3.38004 241.6 3.69004L279.46 54.81L269.37 60.61C269.37 60.61 269.35 60.64 269.33 60.65C269.26 60.7 269.2 60.76 269.15 60.83C269.13 60.86 269.11 60.88 269.1 60.9C269.05 61 269.01 61.1 269.01 61.22V110.77C266.79 112.33 264.43 113.76 261.93 114.99C259.22 116.32 256.35 117.43 253.4 118.31V110.82C253.4 110.45 253.12 110.16 252.76 110.12L235.72 100.36C235.5 100.24 235.23 100.24 235.02 100.36L226.79 105.09L210.12 95.48C209.9 95.36 209.63 95.36 209.41 95.48L158.63 124.42C158.63 124.42 158.54 124.46 158.51 124.49L148.72 130.07C148.72 130.07 148.72 130.07 148.71 130.08C148.62 130.14 148.54 130.21 148.49 130.3C148.47 130.33 148.46 130.35 148.45 130.38C148.41 130.46 148.39 130.53 148.39 130.62C148.39 130.64 148.37 130.66 148.37 130.68V282.86L136.51 275.92C136.28 275.79 136 275.79 135.77 275.93L131.9 278.37C131.9 278.37 131.87 278.4 131.86 278.41C131.83 278.43 131.81 278.44 131.78 278.47C131.76 278.49 131.75 278.51 131.74 278.53C131.72 278.56 131.7 278.58 131.68 278.61C131.65 278.66 131.63 278.71 131.62 278.76C131.62 278.79 131.6 278.82 131.59 278.85C131.58 278.91 131.58 278.98 131.59 279.04C131.59 279.06 131.59 279.08 131.59 279.1C131.6 279.18 131.63 279.26 131.67 279.33L148.37 308.55V314.46L26.0399 350.09C19.6299 351.95 12.3699 354.06 6.79986 359.09C1.29986 364.05 -2.32014 373.27 1.81986 380.61C6.05985 388.14 15.5399 389.63 23.3299 390.08C32.2799 390.6 41.4099 390.85 50.4099 390.82C50.4899 391.5 50.6199 392.16 50.7899 392.78C52.4899 399.03 58.4799 404.02 66.0399 405.51C72.4799 406.78 79.0399 405.62 84.8299 404.59L121.95 398.01C124.02 397.64 126.15 397.23 128.22 396.83L128.35 396.8C137.64 394.98 147.25 393.09 156.26 394.62C159.11 395.11 160.77 395.89 161.49 397.08C162.1 398.07 162.1 399.61 161.49 401.08C160.78 402.77 159.44 404.29 158.13 405.69C146.82 417.79 132.69 426.88 120.33 434.46C120.3 434.48 120.28 434.5 120.26 434.53L112.86 430.26C112.69 430.16 112.49 430.14 112.31 430.19L88.7399 437.08C88.6899 437.1 88.6299 437.12 88.5899 437.15L70.8399 447.34C70.7299 447.4 70.6599 447.49 70.5999 447.59C70.5899 447.61 70.5799 447.63 70.5699 447.66C70.5299 447.74 70.5099 447.83 70.4999 447.92C70.4999 447.94 70.4899 447.95 70.4899 447.97L70.5799 460.34L62.6099 464.93C61.7299 465.44 61.1799 466.39 61.1799 467.4V467.55C61.1799 468.56 61.7199 469.5 62.5899 470.01C63.0399 470.27 63.5399 470.4 64.0399 470.4C64.5399 470.4 65.0099 470.28 65.4399 470.03L75.0099 464.63L78.8399 466.85L72.4599 470.53C71.5799 471.04 71.0299 471.99 71.0299 473V473.15C71.0299 474.16 71.5699 475.1 72.4399 475.61C72.8799 475.87 73.3799 476 73.8799 476C74.3799 476 74.8499 475.88 75.2799 475.63L84.7699 470.28L94.5099 475.91C94.5099 475.91 94.5099 475.91 94.5199 475.91C94.6199 475.97 94.7399 476 94.8599 476C94.9799 476 95.1099 475.97 95.2099 475.91L112.91 465.69C112.98 465.65 113.04 465.6 113.09 465.54L124.87 451.85C124.98 451.72 125.04 451.56 125.04 451.39L125.14 437.88C137.88 430 151.16 421.09 162.08 409.42C163.66 407.73 165.44 405.72 166.49 403.19C167.78 400.1 167.64 396.77 166.12 394.29C164.02 390.83 160.01 389.79 157.17 389.31C147.2 387.61 137.11 389.59 127.31 391.51C125.23 391.92 123.08 392.34 121.01 392.71L83.8899 399.29C78.3199 400.28 72.5499 401.3 67.0899 400.23C62.8699 399.4 57.4499 396.59 56.0299 391.39C55.9799 391.19 55.9299 391 55.8899 390.81C60.5399 390.74 65.2499 390.6 69.8799 390.38C75.0699 390.14 80.0999 389.72 84.5899 387.3C89.2099 384.8 93.5699 379.26 92.2599 372.97C90.9099 366.59 84.2899 363.15 78.6899 363.15C72.8299 363.17 67.6999 366.09 63.8899 368.63C54.7099 374.74 51.6199 381.05 50.6899 385.45C41.7199 385.49 32.6299 385.24 23.6699 384.71C17.2599 384.33 9.50986 383.23 6.56986 377.99C3.81986 373.11 6.52986 366.7 10.4599 363.15C15.0999 358.97 21.7299 357.04 27.5899 355.33L148.4 320.14V348.81C148.4 349.06 148.53 349.3 148.75 349.42L397.88 494.1C397.98 494.16 398.09 494.18 398.2 494.19C398.21 494.19 398.22 494.19 398.23 494.19C398.23 494.19 398.25 494.19 398.27 494.18C398.38 494.18 398.49 494.15 398.59 494.1L407.03 489.14C407.14 489.21 407.26 489.26 407.41 489.26C407.8 489.26 408.12 488.94 408.12 488.55V488.5L458.58 458.81C458.8 458.68 458.93 458.45 458.93 458.2V448.95L467.74 443.84C467.96 443.71 468.09 443.48 468.09 443.23V423.39C468.09 423.39 468.09 423.39 468.09 423.38C468.09 423.27 468.05 423.16 468 423.07C467.99 423.04 467.97 423.02 467.95 423C467.9 422.93 467.84 422.87 467.77 422.82C467.75 422.81 467.75 422.79 467.73 422.78L459.03 417.87C459.03 417.87 458.96 417.86 458.93 417.84V415.07C466.63 413.76 476.27 411.04 486.69 405.59L518.57 423.99C518.68 424.05 518.8 424.09 518.92 424.09C519.04 424.09 519.16 424.06 519.27 424L553.71 404.2C553.93 404.07 554.07 403.84 554.07 403.59V185.5C554.09 185.44 554.12 185.38 554.12 185.31L554.08 185.25ZM304.23 42.2L551.96 185.25L518.88 204.67L306.47 81.68L285.29 53.08L304.23 42.19V42.2ZM418.66 153.98C418.26 158.29 415.58 190.4 423.65 205.24V218.65L413.95 213.06V157.01C413.95 156.76 413.81 156.52 413.59 156.39L361.31 126.45C362.19 125.13 363.06 123.7 363.94 122.2L418.66 153.97V153.98ZM432.12 161.79V184.09L424.71 179.85C424.49 179.72 424.22 179.73 424 179.85C423.78 179.98 423.65 180.21 423.65 180.46V201.9C417.69 187.32 419.54 160.48 420.01 154.75L432.11 161.78L432.12 161.79ZM493.21 401.78C499.79 397.69 506.57 392.44 513.27 385.75V413.36L493.21 401.78ZM498.98 391.15L458.87 368.03V367.18C459.03 365.21 459.03 363.15 458.87 361.04V291.64C460.77 292.21 462.69 292.7 464.62 293.08C467.27 293.59 469.89 293.9 472.46 294.01L475.21 319.01C475.23 319.23 475.36 319.43 475.56 319.54L500.98 334.46V389.56C500.31 390.1 499.64 390.64 498.98 391.15ZM447.62 384.9C447.62 384.9 447.61 384.9 447.6 384.9L445.4 386.22C452.51 376.64 451.85 359.46 443.22 343.85C440.78 339.44 437.87 335.44 434.58 331.96L441.99 327.52C445.3 330.97 448.22 334.93 450.66 339.34C455 347.2 457.25 355.51 457.46 362.97V365.31C457.21 373.21 454.53 379.91 449.47 383.7C448.93 384.12 448.33 384.51 447.63 384.9H447.62ZM438.96 390.09C437.48 390.91 435.86 391.48 434.16 391.81V333.64C437.12 336.87 439.76 340.51 441.98 344.54C451.41 361.59 451.14 380.47 441.34 388.47C440.84 388.88 440.29 389.28 439.71 389.64L438.95 390.09H438.96ZM462.45 203.08L471.86 288.52C467.68 288.24 463.35 287.37 458.88 285.91V239.37C458.88 239.25 458.84 239.15 458.79 239.05C458.78 239.02 458.76 239 458.74 238.98C458.69 238.91 458.63 238.85 458.56 238.8C458.54 238.79 458.54 238.77 458.52 238.76L425.08 219.47V181.7L462.45 203.08ZM513.17 208.85L513.27 208.91V306.37L503.06 312.59C503.2 312.09 503.29 311.54 503.33 310.96C503.36 310.4 503.33 309.82 503.26 309.23L506.94 277.65C506.94 277.65 506.94 277.62 506.94 277.6C506.94 277.59 506.94 277.58 506.94 277.57V212.61L513.16 208.85H513.17ZM513.27 345.27C509.01 335.7 509.32 328.51 510.44 324.04C511.19 321.04 512.38 318.86 513.27 317.52V345.27ZM513.27 315.18C512.58 315.96 510.32 318.76 509.09 323.6C507.79 328.73 507.47 337.22 513.27 348.57V349.83L502.4 343.56V334.05C502.4 333.8 502.27 333.57 502.05 333.44L476.58 318.49L473.89 294.04C474.12 294.04 474.35 294.06 474.58 294.06C478.2 294.06 481.73 293.65 485.13 292.84C485.67 292.71 486.19 292.57 486.7 292.43L489.31 305.78C489.48 307.33 490.02 309 490.93 310.62C492.89 314.09 495.93 316.19 498.59 316.19C499.38 316.19 500.14 316 500.83 315.62C500.83 315.62 500.84 315.62 500.85 315.61L513.26 308.05V315.2L513.27 315.18ZM458.87 287.4C463.58 288.9 468.15 289.75 472.55 289.96C472.58 289.96 472.62 289.98 472.65 289.98C472.68 289.98 472.7 289.98 472.73 289.98C472.74 289.98 472.75 289.98 472.76 289.98C476.73 290.16 480.57 289.82 484.24 288.94C484.86 288.79 485.41 288.64 485.94 288.48L486.44 291.02C485.91 291.17 485.38 291.32 484.81 291.45C478.55 292.95 471.85 293.02 464.9 291.68C462.88 291.29 460.86 290.78 458.88 290.17V287.4H458.87ZM483.83 215.39H483.85C484.62 214.94 485.48 214.73 486.39 214.73C489.76 214.73 493.83 217.59 496.47 222.16C498.12 225.03 498.97 228.12 498.84 230.88C498.72 233.52 497.72 235.51 496.02 236.49C492.42 238.57 486.75 235.53 483.39 229.72C481.74 226.85 480.89 223.76 481.02 221C481.14 218.36 482.14 216.37 483.83 215.39ZM482.16 230.42C485.06 235.44 489.63 238.54 493.53 238.54C494.67 238.54 495.76 238.27 496.73 237.71C496.73 237.71 496.73 237.71 496.74 237.7L505.53 232.37V256.75L489.33 266.13L475.99 229.67L480.58 226.99C480.99 228.15 481.51 229.3 482.16 230.42ZM505.53 276.32L490.35 267.18L505.53 258.39V276.32ZM488.29 267.41C488.29 267.41 488.31 267.45 488.32 267.47C488.32 267.49 488.32 267.51 488.34 267.52C488.34 267.53 488.36 267.54 488.37 267.55C488.43 267.64 488.5 267.72 488.59 267.77L505.48 277.94L503.79 292.42L491.77 299.54C490.97 300 490.37 300.68 489.95 301.51L487.96 291.32C487.96 291.32 487.96 291.3 487.96 291.29L477.55 237.99L488.31 267.39L488.29 267.41ZM500.14 314.37C497.9 315.63 494.25 313.59 492.17 309.91C490.09 306.23 490.22 302.05 492.46 300.78C492.91 300.53 493.42 300.4 493.96 300.4C496.11 300.4 498.77 302.3 500.43 305.24C501.48 307.1 502.01 309.11 501.91 310.88C501.82 312.53 501.19 313.77 500.15 314.36H500.13L500.14 314.37ZM501.67 304.54C500.01 301.6 497.58 299.65 495.25 299.12L503.58 294.18L502.24 305.69C502.07 305.3 501.88 304.92 501.66 304.54H501.67ZM505.53 230.72L499.54 234.35C499.94 233.35 500.19 232.21 500.25 230.94C500.39 227.92 499.48 224.55 497.69 221.45C495.04 216.86 491 213.89 487.34 213.41L497.24 207.85L505.53 212.63V230.72ZM483.13 214.16C481 215.39 479.75 217.79 479.61 220.93C479.54 222.43 479.73 224.01 480.15 225.6L475.83 228.12V195.5L495.81 207.02L483.13 214.15V214.16ZM474.42 229.42C474.42 229.42 474.42 229.47 474.42 229.5L485.66 287.08C485.12 287.24 484.55 287.4 483.9 287.56C480.5 288.38 476.96 288.72 473.28 288.6L465.13 214.56L474.4 219.92V229.37C474.4 229.37 474.4 229.41 474.41 229.43L474.42 229.42ZM458.87 389.52L481 402.29C472.77 406.22 465.18 408.37 458.87 409.51V389.51V389.52ZM482.54 401.54L458.87 387.88V383.59L486.41 399.49C485.11 400.22 483.82 400.9 482.54 401.54ZM487.84 398.68L459.09 382.08C459.02 382.04 458.95 382.02 458.87 382.01V369.66L497.76 392.08C494.41 394.6 491.09 396.79 487.83 398.68H487.84ZM502.4 374.96L511.25 380.07C508.31 383.13 505.35 385.89 502.4 388.38V374.96ZM512.26 379.01L502.41 373.32V345.19L512.81 351.2C512.92 351.26 513.04 351.3 513.16 351.3C513.2 351.3 513.23 351.28 513.27 351.27V377.92C512.93 378.29 512.59 378.65 512.25 379.01H512.26ZM506.22 211.39L476.55 194.28L482.43 191L511.76 208.03L506.22 211.38V211.39ZM474.77 193.66C474.77 193.66 474.77 193.66 474.76 193.67C474.67 193.73 474.59 193.8 474.54 193.89C474.52 193.92 474.51 193.94 474.5 193.97C474.46 194.05 474.44 194.13 474.44 194.21C474.44 194.23 474.42 194.25 474.42 194.27V204.32C460.23 196.78 451 177.37 448.35 171.21L481.02 190.18L474.78 193.66H474.77ZM446.32 170.04C446.81 171.29 449.35 177.56 453.65 184.64C458.02 191.82 465.15 201.29 474.4 205.93V218.27L464.93 212.8L463.8 202.57C463.78 202.34 463.64 202.14 463.45 202.03L442.05 189.79V167.57L446.31 170.04H446.32ZM440.65 166.93V188.97L433.54 184.9V162.61L440.68 166.76C440.67 166.82 440.65 166.87 440.65 166.93ZM304.79 171.87L316.41 178.5V186.78L304.79 180.07V171.86V171.87ZM321.92 161.23C321.92 161.23 321.94 161.22 321.95 161.21L330.01 156.59L341.48 163.21L317.12 177.27L305.51 170.65L321.92 161.23ZM317.83 178.5L342.19 164.44V172.53L317.83 186.78V178.5ZM343.51 162.89C343.51 162.89 343.48 162.84 343.46 162.82C343.41 162.75 343.36 162.69 343.29 162.65C343.27 162.64 343.26 162.62 343.25 162.61L330.36 155.17C330.14 155.04 329.87 155.04 329.65 155.17L321.58 159.8L317.82 157.63V150.64C318.71 150.69 319.6 150.72 320.49 150.72C324.1 150.72 327.63 150.31 331.02 149.5C335.98 148.31 340.68 146.24 345.02 143.35L372.9 181C371.74 183 371.05 185.46 370.89 188.23L343.6 172.49V163.22C343.6 163.1 343.56 162.99 343.51 162.9V162.89ZM279.02 156.77L290.64 163.4V171.68L279.02 164.97V156.76V156.77ZM253.24 141.89L264.85 148.53V156.81L253.24 150.1V141.89ZM303.27 86.97L303.37 87.11V104.25C300.16 110.83 295.99 116.47 290.96 121.02C288.37 123.37 285.5 125.47 282.42 127.27L278.8 125.18C278.58 125.06 278.31 125.05 278.09 125.18L275.11 126.89V112.91C284.38 105.37 291.15 95.07 295.24 82.31L303.26 86.97H303.27ZM317.74 147.79C317.74 147.79 317.71 147.74 317.69 147.71C317.64 147.64 317.59 147.59 317.52 147.54C317.5 147.53 317.49 147.5 317.47 147.49L315.55 146.38C316.05 146.44 316.56 146.5 317.06 146.54C318.27 146.64 319.46 146.69 320.65 146.69C323.91 146.69 327.09 146.32 330.12 145.6C334.53 144.54 338.74 142.69 342.63 140.13L344.17 142.21C339.99 144.98 335.46 146.98 330.69 148.12C326.58 149.1 322.25 149.46 317.82 149.22V148.12C317.82 148 317.78 147.89 317.73 147.8L317.74 147.79ZM283.83 128.08C286.73 126.32 289.46 124.32 291.92 122.07C296.44 117.99 300.29 113.04 303.38 107.35V112.32C299.94 117.68 295.78 122.34 291 126.18C289.55 127.35 287.99 128.47 286.35 129.53L283.82 128.07L283.83 128.08ZM304.79 121.97L316.41 128.68V145.06C315.04 144.93 313.64 144.75 312.25 144.49L304.79 140.18V121.97ZM329.79 144.22C326 145.13 321.98 145.45 317.83 145.17V128.59C317.91 128.41 317.91 128.21 317.83 128.03V106.62L341.79 138.98C338.05 141.43 334.02 143.2 329.79 144.22ZM316.41 104.92V127.04L304.79 120.33V89.02L316.44 104.75C316.43 104.8 316.41 104.86 316.41 104.92ZM273.7 127.7L270.42 129.58V116.33C271.54 115.59 272.63 114.82 273.7 114V127.7ZM269 129.46L257.35 122.74C259.67 121.94 261.95 121 264.13 119.93C265.79 119.12 267.41 118.21 269 117.23V129.45V129.46ZM278.45 126.61L282.09 128.71L286.02 130.98C286.02 130.98 286.05 131 286.06 131L289.92 133.23L265.55 147.3L253.95 140.67L278.44 126.61H278.45ZM266.27 148.52L290.63 134.45V142.54L266.27 156.8V148.52ZM292.05 133.24V133.22C292.05 133.11 292.02 133.02 291.97 132.93C291.95 132.9 291.93 132.87 291.91 132.84C291.87 132.78 291.81 132.73 291.75 132.68C291.73 132.67 291.72 132.64 291.7 132.63L287.72 130.33C289.17 129.36 290.58 128.35 291.89 127.3C296.25 123.8 300.1 119.64 303.38 114.9V140.36L295.61 144.82L292.06 142.77V133.25L292.05 133.24ZM295.95 146.24C295.95 146.24 295.96 146.24 295.97 146.24L304.24 141.49L315.71 148.11L291.35 162.17L279.75 155.54L295.96 146.23L295.95 146.24ZM292.05 163.4L316.41 149.34V157.43L292.05 171.68V163.4ZM373.82 182.25L383.73 195.64L372.28 189.04C372.33 186.46 372.85 184.14 373.82 182.26V182.25ZM374.34 180.56C374.34 180.56 374.33 180.54 374.32 180.53L354.48 153.74L356.8 152.04L416.55 232.73L414.24 234.44L374.33 180.55L374.34 180.56ZM377.88 178.12C384.35 174.87 394.07 180.24 399.77 190.33C402.9 195.86 404.28 202.03 403.59 207.08L396.14 202.79L377.87 178.12H377.88ZM401 189.62C394.86 178.76 384.17 173.14 377.02 176.95L357.53 150.64L349.59 139.91C353.51 136.6 357.18 132.47 360.53 127.63L412.55 157.42V212.24L404.94 207.85C405.87 202.33 404.46 195.72 401.01 189.63L401 189.62ZM359.72 126.29C356.37 131.23 352.67 135.42 348.73 138.77L347.19 136.69C350.86 133.55 354.29 129.66 357.39 125.09C358.44 123.57 359.48 121.93 360.48 120.2L362.71 121.5C361.71 123.21 360.71 124.83 359.71 126.3L359.72 126.29ZM325.73 107.69L355.79 124.91C352.89 129.07 349.72 132.64 346.35 135.54L325.73 107.69ZM356.59 123.74L323.62 104.86L315.74 94.22L359.25 119.49C358.38 120.98 357.49 122.41 356.58 123.75L356.59 123.74ZM355.96 150.91L353.64 152.61L345.78 142L343.4 138.79L276.65 48.65L278.97 46.95L355.97 150.93L355.96 150.91ZM245.47 1.70004L278.12 45.79L275.8 47.49L243.16 3.41004L245.47 1.70004ZM280.3 55.96L294.02 74.48L271.13 61.23L280.3 55.96ZM270.42 62.45L296.14 77.35L301.14 84.1L274.76 68.78C274.54 68.65 274.27 68.65 274.05 68.78C273.83 68.91 273.69 69.14 273.69 69.39V107.06C272.65 108 271.55 108.88 270.41 109.74V62.45H270.42ZM290.45 79.53C287.21 90.25 282.05 99.06 275.11 105.75V70.62L290.45 79.53ZM262.55 116.27C265.18 114.97 267.65 113.47 269.98 111.82C270.09 111.78 270.17 111.71 270.25 111.63C271.87 110.47 273.44 109.24 274.89 107.92C274.89 107.92 274.91 107.9 274.92 107.9C282.57 100.98 288.22 91.68 291.72 80.27L294.01 81.6C289.97 94.36 283.24 104.6 273.98 112.04C270.75 114.63 267.24 116.87 263.53 118.67C261.03 119.89 258.41 120.95 255.73 121.81L253.4 120.46V119.8C256.57 118.88 259.65 117.7 262.56 116.27H262.55ZM210.28 117.02L226.05 126.2L226.11 134.44L210.28 125.38V117.02ZM227.53 134.44L227.47 126.19L251.97 111.97V120.21L227.53 134.44ZM235.35 101.8L251.11 110.82L226.75 124.96L210.98 115.78L235.34 101.8H235.35ZM209.74 96.92L225.34 105.92L209.22 115.17C209.22 115.17 209.2 115.2 209.18 115.21C209.11 115.26 209.05 115.32 209 115.39C208.98 115.41 208.96 115.44 208.95 115.46C208.9 115.56 208.87 115.66 208.86 115.78V125.78C208.86 126.03 209 126.27 209.22 126.4L226.48 136.28C226.48 136.28 226.5 136.28 226.51 136.28C226.61 136.33 226.71 136.36 226.83 136.36C226.95 136.36 227.05 136.32 227.15 136.27C227.16 136.27 227.17 136.27 227.18 136.27L252.46 121.55L268.39 130.74L252.17 140.05C252.17 140.05 252.15 140.08 252.13 140.09C252.06 140.14 252 140.2 251.95 140.27C251.93 140.29 251.91 140.32 251.9 140.34C251.85 140.44 251.81 140.54 251.81 140.66V150.5C251.81 150.75 251.95 150.99 252.16 151.11L265.19 158.63C265.3 158.69 265.42 158.73 265.54 158.73C265.66 158.73 265.78 158.7 265.9 158.63L291.14 143.86L294.16 145.6L277.93 154.92C277.93 154.92 277.91 154.95 277.89 154.96C277.82 155.01 277.76 155.07 277.71 155.14C277.69 155.16 277.67 155.19 277.66 155.21C277.61 155.31 277.57 155.41 277.57 155.53V165.37C277.57 165.62 277.71 165.86 277.92 165.98L290.95 173.51C291.05 173.57 291.17 173.6 291.29 173.6C291.41 173.6 291.53 173.57 291.65 173.5L316.9 158.73L320.11 160.58L303.68 170.01C303.68 170.01 303.66 170.04 303.64 170.05C303.57 170.1 303.51 170.16 303.46 170.23C303.44 170.25 303.42 170.28 303.41 170.3C303.36 170.4 303.32 170.5 303.32 170.62V180.46C303.32 180.71 303.46 180.95 303.67 181.07L316.7 188.59C316.81 188.65 316.93 188.69 317.05 188.69C317.17 188.69 317.29 188.66 317.41 188.59L342.86 173.7L385.78 198.45L413.46 235.83C413.6 236.02 413.81 236.12 414.03 236.12C414.18 236.12 414.32 236.07 414.45 235.98L417.9 233.42C418.05 233.31 418.15 233.14 418.18 232.96C418.21 232.77 418.16 232.58 418.05 232.43L398.19 205.61L456.68 239.34L407.59 267.64L160.36 125.05L209.73 96.92H209.74ZM158.93 125.86L406.23 268.48L398.16 273.13L150.46 130.68L158.93 125.86ZM398.88 274.36L406.64 269.89V487.64L398.88 492.2V274.36ZM136.13 277.36L211.9 321.67L209.65 323.3L133.62 278.95L136.13 277.37V277.36ZM309.28 263.68L337.47 279.96V288.33L309.28 272.05V263.68ZM337.48 278.32L309.29 262.04V253.98L337.48 270.26V278.32ZM309.28 273.68L337.47 289.96V297.94L309.28 281.66V273.68ZM337.48 268.62L309.29 252.34V243.92L337.48 260.2V268.62ZM309.28 283.3L337.47 299.58V308.42L309.28 292.17V283.3ZM338.89 251.07L388.99 280V476.68L338.89 447.75V251.07ZM337.48 258.57L309.29 242.29V233.98L337.48 250.26V258.57ZM307.86 291.35L305.29 289.87V231.67L307.86 233.15V291.35ZM158.22 205.08V196.08L303.88 280.17V289.04L158.22 205.07V205.08ZM158.22 176.47L303.88 260.56V268.93L158.22 184.84V176.47ZM303.88 258.92L158.22 174.83V166.77L303.88 250.86V258.92ZM158.22 186.47L303.88 270.56V278.54L158.22 194.45V186.47ZM303.88 249.22L158.22 165.13V156.71L303.88 240.8V249.22ZM303.88 239.17L158.22 155.08V146.74L303.88 230.86V239.18V239.17ZM158.22 206.72L303.96 290.74C304.08 290.97 304.31 291.13 304.58 291.13C304.59 291.13 304.6 291.13 304.62 291.13L337.12 309.87C337.23 309.93 337.35 309.96 337.47 309.96V446.95L158.22 343.43V325.85L166 339.46C166.06 339.57 166.15 339.66 166.26 339.72L243.43 384.19L243.58 384.28C243.69 384.34 243.81 384.37 243.93 384.37C244.06 384.37 244.19 384.33 244.31 384.26L252.91 378.78C253.11 378.65 253.24 378.42 253.24 378.18V289.5C253.24 289.5 253.24 289.48 253.24 289.47C253.24 289.36 253.21 289.25 253.15 289.15C253.09 289.05 253.01 288.98 252.92 288.92C252.92 288.92 252.91 288.9 252.9 288.9L236.06 279.01V263.67C236.06 263.56 236.02 263.45 235.98 263.36C235.97 263.33 235.95 263.31 235.93 263.28C235.88 263.21 235.82 263.15 235.75 263.1C235.73 263.09 235.73 263.07 235.71 263.06L175.57 228.34C175.35 228.21 175.08 228.22 174.86 228.34L166.27 233.38C166.17 233.44 166.1 233.52 166.04 233.61C166.02 233.64 166.01 233.66 166 233.69C165.96 233.77 165.94 233.85 165.94 233.93C165.94 233.95 165.92 233.97 165.92 233.99V287.91C165.92 288.16 166.06 288.4 166.28 288.52L171.86 291.73V296.62L158.24 288.65V206.73L158.22 206.72ZM247.4 293.27L251.82 290.72V377.79L247.4 380.61V293.28V293.27ZM246.7 292.04L236.06 285.86V280.63L251.13 289.48L246.7 292.04ZM243.23 354.25L235.14 358.81L229.46 348.66L243.23 340.5V354.24V354.25ZM243.23 355.88V373.25L235.84 360.05L243.23 355.88ZM244.3 293.83L236.06 288.99V287.49L245.99 293.26V378.16L244.65 375.77V294.44C244.65 294.19 244.52 293.96 244.3 293.83ZM227.47 269.09L234.64 264.88V317.24L227.47 321.31V269.09ZM226.75 267.86L168.02 233.95L175.21 229.73L233.94 263.64L226.75 267.86ZM167.32 235.19L226.04 269.1V321.3L218.75 317.1L214.03 302.62C213.98 302.45 213.86 302.31 213.71 302.22L178.75 282.31C178.56 282.2 178.34 282.19 178.14 282.27C177.94 282.35 177.79 282.51 177.72 282.71L174.79 291.78L172.82 290.65L167.32 287.48V235.19ZM176.06 292.51L178.82 283.98L212.78 303.33L216.93 316.05L176.07 292.52L176.06 292.51ZM174.5 293.24V298.16L173.26 297.44V292.54L174.5 293.25V293.24ZM175.92 298.38V294.06L178.94 295.8V300.75L175.72 298.87C175.84 298.74 175.92 298.57 175.92 298.38ZM180.36 296.62L226.41 323.14C226.49 323.19 226.59 323.2 226.68 323.21C226.71 323.21 226.73 323.23 226.76 323.23C226.88 323.23 227 323.2 227.11 323.14L235.7 318.26C235.92 318.13 236.06 317.9 236.06 317.64V290.63L243.23 294.84V338.85L228.77 347.42L214.25 321.51C214.19 321.4 214.1 321.31 213.99 321.25L180.36 301.58V296.61V296.62ZM213.17 322.49L234.25 360.13L246.07 381.23C246.1 381.29 246.16 381.32 246.2 381.36L244.1 382.7L210.6 324.35L213.16 322.5L213.17 322.49ZM157.15 294.33L209.16 324.67L241.87 381.64L167.14 338.58L134.18 280.92L157.16 294.33H157.15ZM89.1699 438.39L112.37 431.61L123.29 437.92L112 450.79L94.7999 460.43L72.5599 447.93L89.1599 438.4L89.1699 438.39ZM64.6799 468.77C64.2399 469.02 63.6799 469.02 63.2399 468.76C62.7999 468.5 62.5299 468.03 62.5299 467.52V467.37C62.5299 466.86 62.8099 466.38 63.2499 466.12L77.5799 457.87C78.4699 458.5 79.0599 459.49 79.1899 460.58L64.6799 468.77ZM74.5199 474.37C74.0799 474.62 73.5299 474.62 73.0899 474.36C72.6499 474.1 72.3799 473.63 72.3799 473.12V472.97C72.3799 472.46 72.6599 471.98 73.0999 471.73L87.4299 463.47C88.3199 464.1 88.9099 465.09 89.0399 466.18L74.5199 474.37ZM94.0899 474.03L86.1399 469.44L90.1199 467.19C90.3399 467.06 90.4799 466.82 90.4799 466.57C90.4599 464.7 89.4299 462.96 87.7799 462.02C87.5699 461.9 87.2999 461.91 87.0899 462.02L80.1899 466L76.3699 463.79L80.2699 461.59C80.4899 461.46 80.6299 461.22 80.6299 460.97C80.6099 459.1 79.5899 457.36 77.9199 456.42C77.6999 456.31 77.4499 456.31 77.2399 456.43L71.9299 459.49L71.8499 449.15L94.0899 461.65V474.04V474.03ZM112.05 464.49L95.5199 474.04V461.66L112.81 451.97C112.88 451.93 112.94 451.88 113 451.82L123.68 439.65L123.6 451.09L112.06 464.5L112.05 464.49ZM66.7699 401.57C72.4899 402.69 78.3899 401.65 84.0899 400.63L121.21 394.05C123.29 393.68 125.46 393.26 127.58 392.84C137.21 390.96 147.17 389.01 156.89 390.66C159.45 391.1 163.06 392.02 164.87 394.98C166.15 397.08 166.25 399.93 165.14 402.6C164.18 404.9 162.5 406.8 161.01 408.4C150.16 419.99 136.92 428.86 124.22 436.71C124.19 436.73 124.18 436.75 124.15 436.77L121.59 435.29C133.89 427.73 147.86 418.67 159.12 406.63C160.52 405.13 161.96 403.51 162.76 401.6C163.55 399.71 163.51 397.69 162.67 396.32C161.72 394.75 159.75 393.76 156.47 393.2C147.2 391.63 137.47 393.54 128.05 395.38L127.92 395.4C125.86 395.8 123.74 396.21 121.67 396.58L84.5499 403.16C78.8799 404.17 72.4599 405.31 66.2899 404.09C59.2499 402.71 53.6999 398.11 52.1399 392.38C51.9999 391.87 51.9099 391.33 51.8299 390.78L54.4199 390.76C54.4799 391.07 54.5399 391.39 54.6299 391.7C56.2199 397.52 62.1699 400.65 66.7899 401.55L66.7699 401.57ZM27.1099 353.92C21.1199 355.67 14.3299 357.65 9.44985 362.04C5.09985 365.96 2.15986 373.1 5.26986 378.62C8.54985 384.45 16.7499 385.66 23.5199 386.06C32.6999 386.6 42.0099 386.84 51.2099 386.8L55.2699 386.76C60.0699 386.69 64.8999 386.54 69.6299 386.32C74.5199 386.09 78.8699 385.74 82.6299 383.7C86.0899 381.83 89.1399 377.8 88.2799 373.72C87.3999 369.56 82.7099 367.08 78.6699 367.08H78.6399C73.8499 367.1 69.3899 369.66 66.0399 371.88C63.2299 373.75 56.6499 378.73 54.7399 385.34L52.0799 385.36C53.0299 381.24 56.0299 375.43 64.6099 369.73C68.2599 367.3 73.1499 364.51 78.6699 364.49C83.6599 364.49 89.6199 367.54 90.8099 373.19C91.9799 378.76 88.0199 383.72 83.8499 385.98C79.6299 388.26 74.7699 388.66 69.7499 388.9C64.8599 389.13 59.8899 389.28 54.9899 389.34L50.9999 389.38C41.7799 389.44 32.4999 389.17 23.3699 388.64C15.9399 388.2 6.91986 386.82 3.00986 379.89C-0.760145 373.2 2.61985 364.71 7.70986 360.12C13.0399 355.31 20.1399 353.25 26.3999 351.43L148.33 315.91V318.6L27.1099 353.91V353.92ZM56.2199 385.34C57.6099 381.15 61.4999 376.63 66.8299 373.08C70.0199 370.96 74.2399 368.53 78.6499 368.51H78.6799C82.1499 368.51 86.1699 370.57 86.8999 374.03C87.6199 377.43 84.9599 380.85 81.9599 382.47C78.4699 384.36 74.2799 384.69 69.5699 384.92C65.1699 385.13 60.6899 385.27 56.2199 385.34ZM397.47 492.21L149.76 348.35V311.02L156.81 323.35V343.82C156.81 344.07 156.95 344.31 157.16 344.43L337.59 448.63C337.71 448.83 337.93 448.98 338.18 448.98L389.34 478.53C389.45 478.59 389.57 478.63 389.69 478.63C389.81 478.63 389.94 478.6 390.04 478.53C390.26 478.4 390.39 478.17 390.39 477.92V279.6C390.39 279.35 390.25 279.11 390.04 278.99L157.85 144.9C157.63 144.77 157.36 144.77 157.14 144.9C156.92 145.03 156.79 145.26 156.79 145.51V287.82L149.74 283.7V131.92L397.45 274.37V492.22L397.47 492.21ZM457.45 457.75L408.05 486.81V269.08L457.45 240.6V352.52C456.27 347.93 454.43 343.24 451.89 338.66C449.31 333.99 446.21 329.79 442.66 326.17C442.64 326.15 442.61 326.14 442.59 326.12C442.55 326.08 442.51 326.05 442.46 326.02C442.43 326 442.4 325.99 442.36 325.98C442.3 325.96 442.24 325.94 442.17 325.94C442.15 325.94 442.13 325.93 442.11 325.93C442.09 325.93 442.08 325.93 442.07 325.93C442.02 325.93 441.97 325.95 441.91 325.96C441.87 325.97 441.83 325.98 441.8 326C441.78 326 441.76 326 441.75 326.02L433.08 331.21C433.08 331.21 433.05 331.24 433.03 331.26C432.98 331.3 432.93 331.34 432.89 331.39C432.87 331.42 432.85 331.45 432.83 331.48C432.8 331.53 432.78 331.59 432.77 331.65C432.77 331.68 432.75 331.7 432.74 331.72C432.74 331.73 432.74 331.75 432.74 331.76C432.74 331.78 432.73 331.79 432.73 331.81V392.66C432.73 392.66 432.73 392.69 432.74 392.71C432.74 392.73 432.74 392.74 432.74 392.76C432.74 392.79 432.76 392.82 432.77 392.85C432.78 392.89 432.79 392.93 432.81 392.96C432.83 393.01 432.86 393.04 432.89 393.08C432.91 393.11 432.93 393.14 432.96 393.16C433 393.2 433.05 393.22 433.1 393.25C433.13 393.27 433.15 393.29 433.18 393.3C433.26 393.33 433.35 393.35 433.44 393.35C433.44 393.35 433.51 393.35 433.54 393.35C435.71 393.03 437.76 392.35 439.65 391.3L440.36 390.88C440.36 390.88 440.42 390.84 440.45 390.82L448.29 386.12C448.29 386.12 448.3 386.12 448.31 386.12C449.07 385.69 449.73 385.26 450.31 384.81C453.65 382.31 456.03 378.72 457.44 374.42V418.27L432.66 432.67C432.56 432.73 432.49 432.81 432.43 432.9C432.41 432.93 432.4 432.95 432.39 432.98C432.35 433.06 432.33 433.13 432.33 433.22C432.33 433.24 432.31 433.26 432.31 433.28V453.16C432.31 453.41 432.44 453.65 432.66 453.77L441.18 458.73C441.28 458.79 441.39 458.81 441.5 458.82C441.51 458.82 441.52 458.82 441.53 458.82C441.53 458.82 441.62 458.79 441.66 458.78C441.74 458.77 441.81 458.76 441.88 458.72L457.43 449.69V457.71L457.45 457.75ZM433.74 434.52L440.84 438.62V456.9L433.74 452.77V434.52ZM442.26 456.91V438.62L466.62 424.56V442.77L442.26 456.91ZM465.9 423.34L441.55 437.4L434.45 433.3L458.63 419.25L465.9 423.35V423.34ZM458.87 410.96C465.62 409.75 473.86 407.42 482.76 403.02C482.84 403 482.9 402.96 482.97 402.92C484.66 402.08 486.37 401.17 488.09 400.18C488.17 400.15 488.25 400.11 488.31 400.05C491.93 397.96 495.64 395.51 499.37 392.64C499.41 392.62 499.43 392.59 499.47 392.56C500.32 391.9 501.18 391.22 502.03 390.52C502.1 390.48 502.16 390.43 502.21 390.37C505.89 387.35 509.59 383.91 513.25 380V383.75C493.47 403.96 472.91 411.15 458.85 413.59V410.97L458.87 410.96ZM491.83 402.62L513.62 415.2C513.62 415.2 513.64 415.2 513.65 415.2C513.75 415.25 513.85 415.29 513.97 415.29C514.09 415.29 514.19 415.26 514.29 415.21C514.32 415.2 514.34 415.18 514.36 415.16C514.43 415.11 514.49 415.05 514.54 414.98C514.55 414.96 514.57 414.96 514.58 414.94C514.58 414.93 514.58 414.91 514.59 414.9C514.61 414.86 514.62 414.81 514.64 414.76C514.65 414.72 514.66 414.67 514.67 414.63C514.67 414.61 514.67 414.6 514.67 414.59V208.51C514.67 208.26 514.54 208.03 514.32 207.9L513.5 207.42C513.5 207.42 513.46 207.4 513.44 207.39L419.74 152.98L364.04 120.64C364.04 120.64 364.04 120.64 364.03 120.64C364.03 120.64 364.03 120.64 364.02 120.64L313.6 91.36L308.57 84.57L518.15 205.92V422.12L488.09 404.77C489.32 404.1 490.57 403.39 491.82 402.64L491.83 402.62ZM519.59 422.11V205.9L552.61 186.51V403.12L519.59 422.11Z" fill="currentColor"/>
<path d="M436.34 216.3C436.86 216.57 437.38 216.71 437.88 216.71C438.3 216.71 438.7 216.61 439.05 216.41C439.82 215.98 440.29 215.11 440.35 214.03C440.4 213.05 440.13 211.97 439.56 210.97C439 209.98 438.21 209.18 437.35 208.72C436.4 208.21 435.41 208.17 434.64 208.61C433.87 209.04 433.4 209.91 433.34 210.99C433.29 211.97 433.56 213.05 434.13 214.05C434.69 215.04 435.48 215.84 436.34 216.3ZM435.35 209.85C435.5 209.76 435.67 209.73 435.83 209.73C436.17 209.73 436.5 209.87 436.7 209.98C437.32 210.31 437.92 210.93 438.34 211.68C438.76 212.43 438.98 213.26 438.95 213.96C438.93 214.3 438.83 214.92 438.36 215.18C437.9 215.44 437.31 215.21 437.01 215.05C436.39 214.72 435.79 214.1 435.37 213.35C434.95 212.6 434.73 211.77 434.77 211.07C434.79 210.73 434.89 210.11 435.36 209.85H435.35Z" fill="currentColor"/>
</g>
<defs>
<clipPath id="clip0_88_429">
<rect width="554.08" height="494.15" fill="white"/>
</clipPath>
</defs>
</svg>
